<svg width="44" height="56" viewBox="0 0 44 56" fill="none" xmlns="http://www.w3.org/2000/svg">
<path d="M22.731 0C17.0407 0 12.4292 4.61753 12.4292 10.3125C12.4292 20.1589 22.731 33 22.731 33C22.731 33 33.0327 20.1589 33.0327 10.3125C33.0327 4.61753 28.4204 0 22.731 0ZM22.731 16.005C19.6581 16.005 17.168 13.5119 17.168 10.4363C17.168 7.36065 19.6581 4.8675 22.731 4.8675C25.8029 4.8675 28.2939 7.36065 28.2939 10.4363C28.2939 13.5119 25.8029 16.005 22.731 16.005Z" fill="white"/>
<path d="M8.24146 50.583C8.27791 50.6833 8.29614 50.7653 8.29614 50.8291C8.3007 50.8883 8.28475 50.9339 8.24829 50.9658C8.21183 50.9977 8.15031 51.0182 8.06372 51.0273C7.98169 51.0365 7.87004 51.041 7.72876 51.041C7.58748 51.041 7.47355 51.0365 7.38696 51.0273C7.30493 51.0228 7.24113 51.0137 7.19556 51C7.15454 50.9818 7.12264 50.959 7.09985 50.9316C7.08162 50.9043 7.0634 50.8701 7.04517 50.8291L6.28638 48.6758H2.60864L1.88403 50.8018C1.87036 50.8428 1.85213 50.8792 1.82935 50.9111C1.80656 50.9385 1.77238 50.9635 1.72681 50.9863C1.68579 51.0046 1.62427 51.0182 1.54224 51.0273C1.46476 51.0365 1.36222 51.041 1.23462 51.041C1.10246 51.041 0.993083 51.0342 0.906494 51.0205C0.824463 51.0114 0.765218 50.9909 0.72876 50.959C0.696859 50.9271 0.680908 50.8815 0.680908 50.8223C0.685465 50.7585 0.705973 50.6764 0.742432 50.5762L3.70923 42.3594C3.72746 42.3092 3.75024 42.2682 3.77759 42.2363C3.80949 42.2044 3.85278 42.1794 3.90747 42.1611C3.96672 42.1429 4.03963 42.1315 4.12622 42.127C4.21737 42.1178 4.3313 42.1133 4.46802 42.1133C4.61385 42.1133 4.73462 42.1178 4.83032 42.127C4.92603 42.1315 5.0035 42.1429 5.06274 42.1611C5.12199 42.1794 5.16756 42.2067 5.19946 42.2432C5.23136 42.2751 5.25643 42.3161 5.27466 42.3662L8.24146 50.583ZM4.43384 43.3301H4.427L2.90259 47.7393H5.97876L4.43384 43.3301ZM9.66333 53.0645C9.66333 53.0964 9.65649 53.1214 9.64282 53.1396C9.62915 53.1624 9.60181 53.1807 9.56079 53.1943C9.52433 53.208 9.47648 53.2194 9.41724 53.2285C9.35799 53.2376 9.28507 53.2422 9.19849 53.2422C9.10278 53.2422 9.02303 53.2376 8.95923 53.2285C8.89998 53.2194 8.84985 53.208 8.80884 53.1943C8.77238 53.1807 8.74504 53.1624 8.72681 53.1396C8.71313 53.1214 8.7063 53.0964 8.7063 53.0645V50.3232C8.7063 50.2093 8.72453 50.1341 8.76099 50.0977C8.79744 50.0612 8.86808 50.043 8.9729 50.043H9.4104C9.57902 49.8379 9.73625 49.6032 9.88208 49.3389C10.0279 49.0745 10.1624 48.7441 10.2854 48.3477C10.413 47.9466 10.5292 47.4658 10.634 46.9053C10.7389 46.3447 10.8346 45.6748 10.9211 44.8955C10.9303 44.8317 10.9417 44.7747 10.9553 44.7246C10.9736 44.6699 10.9963 44.6289 11.0237 44.6016C11.0556 44.5697 11.092 44.5446 11.1331 44.5264C11.1741 44.5081 11.2219 44.499 11.2766 44.499H14.6946C14.804 44.499 14.8883 44.5332 14.9475 44.6016C15.0113 44.6654 15.0432 44.7656 15.0432 44.9023V50.043H15.8977C15.9934 50.043 16.0618 50.0612 16.1028 50.0977C16.1438 50.1341 16.1643 50.2093 16.1643 50.3232V53.0645C16.1643 53.0964 16.1575 53.1214 16.1438 53.1396C16.1301 53.1624 16.1028 53.1807 16.0618 53.1943C16.0253 53.208 15.9752 53.2194 15.9114 53.2285C15.8476 53.2376 15.7724 53.2422 15.6858 53.2422C15.5946 53.2422 15.5194 53.2376 15.4602 53.2285C15.401 53.2194 15.3508 53.208 15.3098 53.1943C15.2734 53.1807 15.246 53.1624 15.2278 53.1396C15.2141 53.1214 15.2073 53.0964 15.2073 53.0645V51H9.66333V53.0645ZM13.9084 45.4287H11.9602C11.8645 46.1715 11.7642 46.7982 11.6594 47.3086C11.5592 47.819 11.4498 48.2497 11.3313 48.6006C11.2174 48.9515 11.0966 49.2386 10.969 49.4619C10.8414 49.6807 10.7092 49.8743 10.5725 50.043H13.9084V45.4287ZM23.0754 47.6572C23.0754 48.195 23.0162 48.6781 22.8977 49.1064C22.7838 49.5348 22.6129 49.8994 22.385 50.2002C22.1617 50.4964 21.8837 50.7266 21.551 50.8906C21.2183 51.0501 20.8378 51.1299 20.4094 51.1299C20.2271 51.1299 20.0585 51.1117 19.9036 51.0752C19.7486 51.0387 19.5959 50.9818 19.4456 50.9043C19.2997 50.8268 19.1539 50.7288 19.0081 50.6104C18.8622 50.4919 18.7073 50.3529 18.5432 50.1934V53.2695C18.5432 53.306 18.5341 53.3379 18.5159 53.3652C18.4976 53.3926 18.468 53.4154 18.427 53.4336C18.386 53.4518 18.329 53.4655 18.2561 53.4746C18.1832 53.4837 18.0898 53.4883 17.9758 53.4883C17.8665 53.4883 17.7753 53.4837 17.7024 53.4746C17.6295 53.4655 17.5702 53.4518 17.5247 53.4336C17.4836 53.4154 17.454 53.3926 17.4358 53.3652C17.4221 53.3379 17.4153 53.306 17.4153 53.2695V44.6768C17.4153 44.6357 17.4221 44.6038 17.4358 44.5811C17.4495 44.5537 17.4768 44.5309 17.5178 44.5127C17.5588 44.4945 17.6112 44.4831 17.675 44.4785C17.7389 44.4694 17.8163 44.4648 17.9075 44.4648C18.0032 44.4648 18.0806 44.4694 18.1399 44.4785C18.2037 44.4831 18.2561 44.4945 18.2971 44.5127C18.3381 44.5309 18.3655 44.5537 18.3792 44.5811C18.3974 44.6038 18.4065 44.6357 18.4065 44.6768V45.5039C18.5933 45.3125 18.7734 45.1462 18.9465 45.0049C19.1197 44.8636 19.2929 44.7474 19.4661 44.6562C19.6438 44.5605 19.8238 44.4899 20.0061 44.4443C20.193 44.3942 20.3889 44.3691 20.594 44.3691C21.0406 44.3691 21.4211 44.4557 21.7356 44.6289C22.05 44.8021 22.3053 45.0391 22.5012 45.3398C22.7017 45.6406 22.8476 45.9915 22.9387 46.3926C23.0299 46.7891 23.0754 47.2106 23.0754 47.6572ZM21.886 47.7871C21.886 47.4727 21.8609 47.1696 21.8108 46.8779C21.7652 46.5817 21.6832 46.3197 21.5647 46.0918C21.4508 45.8639 21.2958 45.6816 21.0999 45.5449C20.9039 45.4082 20.6601 45.3398 20.3684 45.3398C20.2226 45.3398 20.079 45.3626 19.9377 45.4082C19.7965 45.4492 19.6529 45.5176 19.5071 45.6133C19.3612 45.7044 19.2086 45.8275 19.0491 45.9824C18.8896 46.1328 18.7209 46.3197 18.5432 46.543V48.9902C18.8531 49.3685 19.1471 49.6579 19.425 49.8584C19.703 50.0589 19.9947 50.1592 20.3 50.1592C20.5826 50.1592 20.8241 50.0908 21.0247 49.9541C21.2297 49.8174 21.3938 49.6351 21.5168 49.4072C21.6444 49.1794 21.7379 48.9242 21.7971 48.6416C21.8564 48.359 21.886 48.0742 21.886 47.7871ZM30.0208 47.4863C30.0208 47.6641 29.9752 47.7917 29.884 47.8691C29.7974 47.9421 29.6972 47.9785 29.5833 47.9785H25.55C25.55 48.3203 25.5842 48.6279 25.6526 48.9014C25.7209 49.1748 25.8349 49.4095 25.9944 49.6055C26.1539 49.8014 26.3612 49.9518 26.6165 50.0566C26.8717 50.1615 27.1838 50.2139 27.553 50.2139C27.8446 50.2139 28.1044 50.1911 28.3323 50.1455C28.5601 50.0954 28.7561 50.0407 28.9202 49.9814C29.0888 49.9222 29.2255 49.8698 29.3303 49.8242C29.4397 49.7741 29.5217 49.749 29.5764 49.749C29.6083 49.749 29.6357 49.7581 29.6584 49.7764C29.6858 49.79 29.7063 49.8128 29.72 49.8447C29.7336 49.8766 29.7428 49.9222 29.7473 49.9814C29.7564 50.0361 29.761 50.1045 29.761 50.1865C29.761 50.2458 29.7587 50.2982 29.7542 50.3438C29.7496 50.3848 29.7428 50.4235 29.7336 50.46C29.7291 50.4919 29.7177 50.5215 29.6995 50.5488C29.6858 50.5762 29.6653 50.6035 29.6379 50.6309C29.6152 50.6536 29.5422 50.6947 29.4192 50.7539C29.2961 50.8086 29.1366 50.8633 28.9407 50.918C28.7447 50.9727 28.5168 51.0205 28.2571 51.0615C28.0019 51.1071 27.7284 51.1299 27.4368 51.1299C26.9309 51.1299 26.4866 51.0592 26.1038 50.918C25.7255 50.7767 25.4065 50.5671 25.1467 50.2891C24.887 50.0111 24.691 49.6624 24.5588 49.2432C24.4267 48.8239 24.3606 48.3363 24.3606 47.7803C24.3606 47.2516 24.429 46.7777 24.5657 46.3584C24.7024 45.9346 24.8984 45.5768 25.1536 45.2852C25.4133 44.9889 25.7255 44.7633 26.0901 44.6084C26.4547 44.4489 26.8625 44.3691 27.3137 44.3691C27.7968 44.3691 28.2069 44.4466 28.5442 44.6016C28.886 44.7565 29.1663 44.9661 29.385 45.2305C29.6038 45.4902 29.7633 45.7979 29.8635 46.1533C29.9683 46.5042 30.0208 46.8802 30.0208 47.2812V47.4863ZM28.886 47.1514C28.8997 46.5589 28.7675 46.0941 28.4895 45.7568C28.2161 45.4196 27.8082 45.251 27.2659 45.251C26.9879 45.251 26.7441 45.3034 26.5344 45.4082C26.3248 45.513 26.1493 45.652 26.0081 45.8252C25.8668 45.9984 25.7574 46.2012 25.6799 46.4336C25.6025 46.6615 25.5592 46.9007 25.55 47.1514H28.886ZM36.1663 49.8926C36.1663 49.9701 36.164 50.0384 36.1594 50.0977C36.1549 50.1523 36.1458 50.2002 36.1321 50.2412C36.123 50.2777 36.1093 50.3118 36.0911 50.3438C36.0774 50.3711 36.0409 50.4144 35.9817 50.4736C35.927 50.5283 35.8313 50.599 35.6946 50.6855C35.5579 50.7676 35.4029 50.8428 35.2297 50.9111C35.0611 50.9749 34.8765 51.0273 34.676 51.0684C34.4755 51.1094 34.2681 51.1299 34.054 51.1299C33.6119 51.1299 33.22 51.057 32.8782 50.9111C32.5364 50.7653 32.2493 50.5534 32.0168 50.2754C31.789 49.9928 31.6135 49.6488 31.4905 49.2432C31.372 48.833 31.3127 48.3613 31.3127 47.8281C31.3127 47.222 31.3857 46.7025 31.5315 46.2695C31.6819 45.832 31.8847 45.4743 32.1399 45.1963C32.3997 44.9183 32.7027 44.7132 33.0491 44.5811C33.4 44.4443 33.7782 44.376 34.1838 44.376C34.3798 44.376 34.5689 44.3942 34.7512 44.4307C34.9381 44.4671 35.109 44.515 35.2639 44.5742C35.4189 44.6335 35.5556 44.7018 35.6741 44.7793C35.7971 44.8568 35.886 44.9229 35.9407 44.9775C35.9954 45.0322 36.0318 45.0755 36.05 45.1074C36.0728 45.1393 36.0911 45.1781 36.1047 45.2236C36.1184 45.2646 36.1275 45.3125 36.1321 45.3672C36.1366 45.4219 36.1389 45.4902 36.1389 45.5723C36.1389 45.75 36.1184 45.8753 36.0774 45.9482C36.0364 46.0166 35.9862 46.0508 35.927 46.0508C35.8586 46.0508 35.7789 46.0143 35.6877 45.9414C35.6012 45.8639 35.4895 45.7796 35.3528 45.6885C35.2161 45.5973 35.0497 45.5153 34.8538 45.4424C34.6624 45.3649 34.4345 45.3262 34.1702 45.3262C33.6278 45.3262 33.2109 45.5358 32.9192 45.9551C32.6321 46.3698 32.4885 46.9736 32.4885 47.7666C32.4885 48.1631 32.525 48.5117 32.5979 48.8125C32.6754 49.1087 32.787 49.3571 32.9329 49.5576C33.0787 49.7581 33.2564 49.9085 33.4661 50.0088C33.6803 50.1045 33.9241 50.1523 34.1975 50.1523C34.4573 50.1523 34.6851 50.1113 34.8811 50.0293C35.0771 49.9473 35.2457 49.8584 35.387 49.7627C35.5328 49.6624 35.6536 49.5736 35.7493 49.4961C35.8495 49.4141 35.927 49.373 35.9817 49.373C36.0136 49.373 36.0409 49.3822 36.0637 49.4004C36.0865 49.4186 36.1047 49.4505 36.1184 49.4961C36.1366 49.5371 36.148 49.5918 36.1526 49.6602C36.1617 49.724 36.1663 49.8014 36.1663 49.8926ZM42.2981 50.8359C42.2981 50.8906 42.2799 50.9316 42.2434 50.959C42.2069 50.9863 42.1568 51.0068 42.093 51.0205C42.0292 51.0342 41.9358 51.041 41.8127 51.041C41.6943 51.041 41.5986 51.0342 41.5256 51.0205C41.4573 51.0068 41.4071 50.9863 41.3752 50.959C41.3433 50.9316 41.3274 50.8906 41.3274 50.8359V50.2207C41.0585 50.5078 40.7577 50.7311 40.425 50.8906C40.0969 51.0501 39.7483 51.1299 39.3792 51.1299C39.0556 51.1299 38.7616 51.0866 38.4973 51C38.2375 50.918 38.0142 50.7972 37.8274 50.6377C37.6451 50.4782 37.5015 50.2822 37.3967 50.0498C37.2965 49.8174 37.2463 49.5531 37.2463 49.2568C37.2463 48.9105 37.317 48.6097 37.4583 48.3545C37.5995 48.0993 37.8023 47.8874 38.0667 47.7188C38.331 47.5501 38.6545 47.4248 39.0374 47.3428C39.4202 47.2562 39.8508 47.2129 40.3293 47.2129H41.177V46.7344C41.177 46.4974 41.1519 46.2878 41.1018 46.1055C41.0517 45.9232 40.9696 45.7728 40.8557 45.6543C40.7463 45.5312 40.6028 45.4401 40.425 45.3809C40.2473 45.3171 40.0286 45.2852 39.7688 45.2852C39.4908 45.2852 39.2402 45.3193 39.0168 45.3877C38.7981 45.4515 38.6044 45.5244 38.4358 45.6064C38.2717 45.6839 38.1327 45.7568 38.0188 45.8252C37.9094 45.889 37.8274 45.9209 37.7727 45.9209C37.7362 45.9209 37.7043 45.9118 37.677 45.8936C37.6497 45.8753 37.6246 45.848 37.6018 45.8115C37.5836 45.7751 37.5699 45.7295 37.5608 45.6748C37.5517 45.6156 37.5471 45.5518 37.5471 45.4834C37.5471 45.3695 37.554 45.2806 37.5676 45.2168C37.5859 45.1484 37.6246 45.0846 37.6838 45.0254C37.7476 44.9661 37.8547 44.8978 38.0051 44.8203C38.1555 44.7383 38.3287 44.6654 38.5247 44.6016C38.7206 44.5332 38.9348 44.4785 39.1672 44.4375C39.3997 44.3919 39.6344 44.3691 39.8713 44.3691C40.3134 44.3691 40.6894 44.4193 40.9993 44.5195C41.3092 44.6198 41.5598 44.7679 41.7512 44.9639C41.9426 45.1553 42.0816 45.3945 42.1682 45.6816C42.2548 45.9688 42.2981 46.3037 42.2981 46.6865V50.8359ZM41.177 48.0264H40.2131C39.9032 48.0264 39.6344 48.0537 39.4065 48.1084C39.1786 48.1585 38.9895 48.236 38.8391 48.3408C38.6887 48.4411 38.5771 48.5641 38.5042 48.71C38.4358 48.8512 38.4016 49.0153 38.4016 49.2021C38.4016 49.5212 38.5019 49.7764 38.7024 49.9678C38.9075 50.1546 39.1923 50.248 39.5569 50.248C39.8531 50.248 40.1265 50.1729 40.3772 50.0225C40.6324 49.8721 40.899 49.6419 41.177 49.332V48.0264Z" fill="#818181"/>
</svg>
