<svg width="71" height="56" viewBox="0 0 71 56" fill="none" xmlns="http://www.w3.org/2000/svg">
<path d="M65.464 6.29456C65.1754 5.8818 64.7012 5.63415 64.2065 5.63415H54.6198V1.54784C54.6198 0.701689 53.9189 0 53.0736 0H18.3349C17.4897 0 16.7887 0.701689 16.7887 1.54784V26.561C16.7887 27.4071 17.4897 28.1088 18.3349 28.1088H22.7056C23.5096 30.9156 26.1073 33 29.1585 33C32.2098 33 34.8074 30.9362 35.6115 28.1088H52.7437C53.5478 30.9156 56.1454 33 59.1967 33C62.2479 33 64.8456 30.9362 65.6496 28.1088H68.8451C69.6904 28.1088 70.3914 27.4071 70.3914 26.561V13.8274C70.3914 13.4972 70.2883 13.1876 70.1027 12.94L65.464 6.29456ZM67.3195 14.2814H60.3924V8.75047H63.423L67.3195 14.2814ZM19.8812 3.11633H51.5274V25.0338H35.7558C35.1579 21.9175 32.4366 19.5647 29.1585 19.5647C25.8805 19.5647 23.1386 21.9175 22.5613 25.0338H19.8812V3.11633ZM29.1585 29.9043C27.1588 29.9043 25.5301 28.2739 25.5301 26.2721C25.5301 24.2702 27.1588 22.6398 29.1585 22.6398C31.1583 22.6398 32.787 24.2702 32.787 26.2721C32.787 28.2739 31.1583 29.9043 29.1585 29.9043ZM59.2173 29.9043C57.2175 29.9043 55.5888 28.2739 55.5888 26.2721C55.5888 24.2702 57.2175 22.6398 59.2173 22.6398C61.2171 22.6398 62.8458 24.2702 62.8458 26.2721C62.8458 28.2739 61.2171 29.9043 59.2173 29.9043ZM65.8145 25.0338C65.2167 21.9175 62.4953 19.5647 59.2173 19.5647C57.4443 19.5647 55.8156 20.2664 54.6198 21.4015V8.75047H57.2793V15.8293C57.2793 16.6754 57.9803 17.3771 58.8256 17.3771H67.3401V25.0338H65.8145Z" fill="white"/>
<path d="M1.9244 3.11637H12.9542C13.7995 3.11637 14.5004 2.41469 14.5004 1.56853C14.5004 0.722379 13.7995 0.0206909 12.9542 0.0206909H1.9244C1.07913 0.0206909 0.378174 0.722379 0.378174 1.56853C0.378174 2.41469 1.07913 3.11637 1.9244 3.11637Z" fill="white"/>
<path d="M12.9543 5.65485H4.46029C3.61502 5.65485 2.91406 6.35654 2.91406 7.20269C2.91406 8.04884 3.61502 8.75053 4.46029 8.75053H12.9543C13.7995 8.75053 14.5005 8.04884 14.5005 7.20269C14.5005 6.35654 13.8201 5.65485 12.9543 5.65485Z" fill="white"/>
<path d="M12.9541 11.2889H7.59384C6.74857 11.2889 6.04761 11.9906 6.04761 12.8368C6.04761 13.6829 6.74857 14.3846 7.59384 14.3846H12.9541C13.7994 14.3846 14.5003 13.6829 14.5003 12.8368C14.5003 11.9906 13.82 11.2889 12.9541 11.2889Z" fill="white"/>
<path d="M12.9541 16.9231H11.0986C10.2533 16.9231 9.55237 17.6248 9.55237 18.4709C9.55237 19.3171 10.2533 20.0188 11.0986 20.0188H12.9541C13.7994 20.0188 14.5003 19.3171 14.5003 18.4709C14.5003 17.6248 13.82 16.9231 12.9541 16.9231Z" fill="white"/>
<path d="M24.0715 53.1533C24.0715 53.1898 24.0647 53.2194 24.051 53.2422C24.0374 53.265 24.01 53.2832 23.969 53.2969C23.9325 53.3105 23.8824 53.3219 23.8186 53.3311C23.7548 53.3402 23.6682 53.3447 23.5588 53.3447C23.4677 53.3447 23.3902 53.3402 23.3264 53.3311C23.2626 53.3219 23.2102 53.3105 23.1692 53.2969C23.1327 53.2832 23.1054 53.265 23.0872 53.2422C23.0735 53.2194 23.0667 53.1898 23.0667 53.1533V51H16.4084V53.1533C16.4084 53.1898 16.3993 53.2194 16.3811 53.2422C16.3674 53.265 16.3401 53.2832 16.2991 53.2969C16.2626 53.3105 16.2125 53.3219 16.1487 53.3311C16.0849 53.3402 16.0051 53.3447 15.9094 53.3447C15.8046 53.3447 15.7203 53.3402 15.6565 53.3311C15.5927 53.3219 15.5403 53.3105 15.4993 53.2969C15.4628 53.2832 15.4355 53.265 15.4172 53.2422C15.4036 53.2194 15.3967 53.1898 15.3967 53.1533V50.3438C15.3876 50.2253 15.4058 50.1387 15.4514 50.084C15.497 50.0293 15.5676 50.002 15.6633 50.002H16.176C16.3036 49.8379 16.4221 49.6715 16.5315 49.5029C16.6409 49.3298 16.7457 49.127 16.8459 48.8945C16.9462 48.6621 17.0442 48.3796 17.1399 48.0469C17.2356 47.7142 17.329 47.304 17.4202 46.8164C17.5159 46.3242 17.6116 45.7386 17.7073 45.0596C17.803 44.3805 17.9032 43.5739 18.0081 42.6396C18.0354 42.4756 18.081 42.3548 18.1448 42.2773C18.2131 42.1953 18.3088 42.1543 18.4319 42.1543H22.5129C22.636 42.1543 22.734 42.1953 22.8069 42.2773C22.8844 42.3548 22.9231 42.4733 22.9231 42.6328V50.002H23.8049C23.9006 50.002 23.969 50.0316 24.01 50.0908C24.051 50.1455 24.0715 50.2321 24.0715 50.3506V53.1533ZM21.7473 43.1592H19.1223C19.0266 44.0023 18.9309 44.7383 18.8352 45.3672C18.7441 45.9961 18.6529 46.543 18.5618 47.0078C18.4752 47.4727 18.3863 47.8669 18.2952 48.1904C18.204 48.5094 18.1106 48.7829 18.0149 49.0107C17.9237 49.234 17.828 49.4232 17.7278 49.5781C17.6321 49.7331 17.5318 49.8743 17.427 50.002H21.7473V43.1592ZM31.0442 47.6846C31.0442 48.1859 30.9781 48.6484 30.8459 49.0723C30.7138 49.4915 30.5155 49.8538 30.2512 50.1592C29.9915 50.4645 29.6633 50.7038 29.2668 50.877C28.8749 51.0456 28.4192 51.1299 27.8997 51.1299C27.3938 51.1299 26.9517 51.0547 26.5735 50.9043C26.1998 50.7539 25.8876 50.5352 25.637 50.248C25.3863 49.9609 25.1995 49.6123 25.0764 49.2021C24.9534 48.792 24.8918 48.3271 24.8918 47.8076C24.8918 47.3063 24.9556 46.846 25.0833 46.4268C25.2154 46.0029 25.4114 45.6383 25.6711 45.333C25.9355 45.0277 26.2636 44.7907 26.6555 44.6221C27.0474 44.4535 27.5055 44.3691 28.0295 44.3691C28.5354 44.3691 28.9752 44.4443 29.3489 44.5947C29.7271 44.7451 30.0416 44.9639 30.2922 45.251C30.5429 45.5381 30.7297 45.8867 30.8528 46.2969C30.9804 46.707 31.0442 47.1696 31.0442 47.6846ZM29.8547 47.7598C29.8547 47.4271 29.8228 47.1126 29.759 46.8164C29.6998 46.5202 29.5995 46.2604 29.4583 46.0371C29.317 45.8138 29.1256 45.6383 28.884 45.5107C28.6425 45.3786 28.3417 45.3125 27.9817 45.3125C27.649 45.3125 27.3619 45.3717 27.1204 45.4902C26.8834 45.6087 26.6874 45.7773 26.5325 45.9961C26.3775 46.2103 26.2613 46.4655 26.1838 46.7617C26.1109 47.0579 26.0745 47.3815 26.0745 47.7324C26.0745 48.0697 26.1041 48.3864 26.1633 48.6826C26.2271 48.9788 26.3297 49.2386 26.4709 49.4619C26.6168 49.6807 26.8105 49.8561 27.052 49.9883C27.2935 50.1159 27.5943 50.1797 27.9543 50.1797C28.2825 50.1797 28.5673 50.1204 28.8088 50.002C29.0504 49.8835 29.2486 49.7171 29.4036 49.5029C29.5585 49.2887 29.6724 49.0335 29.7454 48.7373C29.8183 48.4411 29.8547 48.1152 29.8547 47.7598ZM37.1282 49.8926C37.1282 49.9701 37.1259 50.0384 37.1213 50.0977C37.1168 50.1523 37.1077 50.2002 37.094 50.2412C37.0849 50.2777 37.0712 50.3118 37.053 50.3438C37.0393 50.3711 37.0028 50.4144 36.9436 50.4736C36.8889 50.5283 36.7932 50.599 36.6565 50.6855C36.5198 50.7676 36.3648 50.8428 36.1917 50.9111C36.023 50.9749 35.8385 51.0273 35.6379 51.0684C35.4374 51.1094 35.2301 51.1299 35.0159 51.1299C34.5738 51.1299 34.1819 51.057 33.8401 50.9111C33.4983 50.7653 33.2112 50.5534 32.9788 50.2754C32.7509 49.9928 32.5754 49.6488 32.4524 49.2432C32.3339 48.833 32.2747 48.3613 32.2747 47.8281C32.2747 47.222 32.3476 46.7025 32.4934 46.2695C32.6438 45.832 32.8466 45.4743 33.1018 45.1963C33.3616 44.9183 33.6646 44.7132 34.011 44.5811C34.3619 44.4443 34.7402 44.376 35.1458 44.376C35.3417 44.376 35.5308 44.3942 35.7131 44.4307C35.9 44.4671 36.0709 44.515 36.2258 44.5742C36.3808 44.6335 36.5175 44.7018 36.636 44.7793C36.759 44.8568 36.8479 44.9229 36.9026 44.9775C36.9573 45.0322 36.9937 45.0755 37.012 45.1074C37.0347 45.1393 37.053 45.1781 37.0667 45.2236C37.0803 45.2646 37.0894 45.3125 37.094 45.3672C37.0986 45.4219 37.1008 45.4902 37.1008 45.5723C37.1008 45.75 37.0803 45.8753 37.0393 45.9482C36.9983 46.0166 36.9482 46.0508 36.8889 46.0508C36.8206 46.0508 36.7408 46.0143 36.6497 45.9414C36.5631 45.8639 36.4514 45.7796 36.3147 45.6885C36.178 45.5973 36.0116 45.5153 35.8157 45.4424C35.6243 45.3649 35.3964 45.3262 35.1321 45.3262C34.5898 45.3262 34.1728 45.5358 33.8811 45.9551C33.594 46.3698 33.4504 46.9736 33.4504 47.7666C33.4504 48.1631 33.4869 48.5117 33.5598 48.8125C33.6373 49.1087 33.7489 49.3571 33.8948 49.5576C34.0406 49.7581 34.2183 49.9085 34.428 50.0088C34.6422 50.1045 34.886 50.1523 35.1594 50.1523C35.4192 50.1523 35.6471 50.1113 35.843 50.0293C36.039 49.9473 36.2076 49.8584 36.3489 49.7627C36.4947 49.6624 36.6155 49.5736 36.7112 49.4961C36.8114 49.4141 36.8889 49.373 36.9436 49.373C36.9755 49.373 37.0028 49.3822 37.0256 49.4004C37.0484 49.4186 37.0667 49.4505 37.0803 49.4961C37.0986 49.5371 37.1099 49.5918 37.1145 49.6602C37.1236 49.724 37.1282 49.8014 37.1282 49.8926ZM42.9319 45.0117C42.9319 45.1029 42.9273 45.1803 42.9182 45.2441C42.9091 45.3079 42.8931 45.3604 42.8704 45.4014C42.8521 45.4424 42.8293 45.4743 42.802 45.4971C42.7747 45.5153 42.7405 45.5244 42.6995 45.5244H40.8538V50.8291C40.8538 50.8656 40.8446 50.8975 40.8264 50.9248C40.8082 50.9476 40.7786 50.9681 40.7375 50.9863C40.6965 51.0046 40.6396 51.0182 40.5667 51.0273C40.4937 51.0365 40.4003 51.041 40.2864 51.041C40.177 51.041 40.0859 51.0365 40.0129 51.0273C39.94 51.0182 39.8808 51.0046 39.8352 50.9863C39.7942 50.9681 39.7646 50.9476 39.7463 50.9248C39.7327 50.8975 39.7258 50.8656 39.7258 50.8291V45.5244H37.8801C37.8437 45.5244 37.8095 45.5153 37.7776 45.4971C37.7502 45.4743 37.7275 45.4424 37.7092 45.4014C37.691 45.3604 37.675 45.3079 37.6614 45.2441C37.6523 45.1758 37.6477 45.096 37.6477 45.0049C37.6477 44.9229 37.6523 44.8499 37.6614 44.7861C37.675 44.7223 37.691 44.6699 37.7092 44.6289C37.732 44.5833 37.7571 44.5514 37.7844 44.5332C37.8118 44.5104 37.8437 44.499 37.8801 44.499H42.6995C42.7359 44.499 42.7678 44.5104 42.7952 44.5332C42.8271 44.5514 42.8521 44.5833 42.8704 44.6289C42.8886 44.6699 42.9023 44.7246 42.9114 44.793C42.925 44.8568 42.9319 44.9297 42.9319 45.0117ZM48.6877 50.8359C48.6877 50.8906 48.6695 50.9316 48.6331 50.959C48.5966 50.9863 48.5465 51.0068 48.4827 51.0205C48.4189 51.0342 48.3254 51.041 48.2024 51.041C48.0839 51.041 47.9882 51.0342 47.9153 51.0205C47.8469 51.0068 47.7968 50.9863 47.7649 50.959C47.733 50.9316 47.717 50.8906 47.717 50.8359V50.2207C47.4482 50.5078 47.1474 50.7311 46.8147 50.8906C46.4866 51.0501 46.1379 51.1299 45.7688 51.1299C45.4452 51.1299 45.1513 51.0866 44.887 51C44.6272 50.918 44.4039 50.7972 44.217 50.6377C44.0347 50.4782 43.8912 50.2822 43.7864 50.0498C43.6861 49.8174 43.636 49.5531 43.636 49.2568C43.636 48.9105 43.7066 48.6097 43.8479 48.3545C43.9892 48.0993 44.192 47.8874 44.4563 47.7188C44.7206 47.5501 45.0442 47.4248 45.427 47.3428C45.8098 47.2562 46.2405 47.2129 46.719 47.2129H47.5667V46.7344C47.5667 46.4974 47.5416 46.2878 47.4915 46.1055C47.4413 45.9232 47.3593 45.7728 47.2454 45.6543C47.136 45.5312 46.9924 45.4401 46.8147 45.3809C46.637 45.3171 46.4182 45.2852 46.1584 45.2852C45.8805 45.2852 45.6298 45.3193 45.4065 45.3877C45.1877 45.4515 44.9941 45.5244 44.8254 45.6064C44.6614 45.6839 44.5224 45.7568 44.4084 45.8252C44.2991 45.889 44.217 45.9209 44.1624 45.9209C44.1259 45.9209 44.094 45.9118 44.0667 45.8936C44.0393 45.8753 44.0142 45.848 43.9915 45.8115C43.9732 45.7751 43.9596 45.7295 43.9504 45.6748C43.9413 45.6156 43.9368 45.5518 43.9368 45.4834C43.9368 45.3695 43.9436 45.2806 43.9573 45.2168C43.9755 45.1484 44.0142 45.0846 44.0735 45.0254C44.1373 44.9661 44.2444 44.8978 44.3948 44.8203C44.5452 44.7383 44.7183 44.6654 44.9143 44.6016C45.1103 44.5332 45.3245 44.4785 45.5569 44.4375C45.7893 44.3919 46.024 44.3691 46.261 44.3691C46.703 44.3691 47.079 44.4193 47.3889 44.5195C47.6988 44.6198 47.9495 44.7679 48.1409 44.9639C48.3323 45.1553 48.4713 45.3945 48.5579 45.6816C48.6444 45.9688 48.6877 46.3037 48.6877 46.6865V50.8359ZM47.5667 48.0264H46.6028C46.2929 48.0264 46.024 48.0537 45.7961 48.1084C45.5683 48.1585 45.3792 48.236 45.2288 48.3408C45.0784 48.4411 44.9667 48.5641 44.8938 48.71C44.8254 48.8512 44.7913 49.0153 44.7913 49.2021C44.7913 49.5212 44.8915 49.7764 45.092 49.9678C45.2971 50.1546 45.5819 50.248 45.9465 50.248C46.2428 50.248 46.5162 50.1729 46.7668 50.0225C47.0221 49.8721 47.2887 49.6419 47.5667 49.332V48.0264ZM55.8176 49.0586C55.8176 49.3822 55.7561 49.6715 55.6331 49.9268C55.51 50.1774 55.3277 50.3893 55.0862 50.5625C54.8446 50.7311 54.5439 50.861 54.1838 50.9521C53.8238 51.0387 53.4045 51.082 52.926 51.082C52.7756 51.082 52.6298 51.0798 52.4885 51.0752C52.3472 51.0752 52.2105 51.0706 52.0784 51.0615C51.9462 51.057 51.814 51.0501 51.6819 51.041C51.5543 51.0319 51.4267 51.0205 51.2991 51.0068C51.1168 50.984 50.9823 50.9248 50.8958 50.8291C50.8092 50.7288 50.7659 50.583 50.7659 50.3916V45.0938C50.7659 44.9069 50.8069 44.7633 50.8889 44.6631C50.9755 44.5628 51.1054 44.5036 51.2786 44.4854C51.3971 44.4717 51.5224 44.4603 51.6545 44.4512C51.7913 44.4421 51.9303 44.4352 52.0715 44.4307C52.2128 44.4215 52.3586 44.4147 52.509 44.4102C52.6594 44.4056 52.8121 44.4033 52.967 44.4033C53.4091 44.4033 53.7919 44.4398 54.1155 44.5127C54.439 44.5856 54.7079 44.6927 54.9221 44.834C55.1363 44.9753 55.2935 45.1484 55.3938 45.3535C55.4986 45.5586 55.551 45.7933 55.551 46.0576C55.551 46.404 55.4576 46.7002 55.2708 46.9463C55.0885 47.1924 54.8173 47.3678 54.4573 47.4727C54.9084 47.5684 55.248 47.7529 55.4758 48.0264C55.7037 48.2998 55.8176 48.6439 55.8176 49.0586ZM54.4573 46.2012C54.4573 46.0508 54.4299 45.9163 54.3752 45.7979C54.3206 45.6794 54.2294 45.5791 54.1018 45.4971C53.9788 45.415 53.817 45.3535 53.6165 45.3125C53.4205 45.2715 53.1812 45.251 52.8987 45.251C52.6845 45.251 52.4885 45.2578 52.3108 45.2715C52.1331 45.2806 51.9827 45.292 51.8596 45.3057V47.2197H53.0081C53.4775 47.2197 53.8352 47.1331 54.0813 46.96C54.3319 46.7822 54.4573 46.5293 54.4573 46.2012ZM54.6624 49.0791C54.6624 48.8968 54.6305 48.7373 54.5667 48.6006C54.5028 48.4593 54.4003 48.3431 54.259 48.252C54.1223 48.1608 53.9446 48.0924 53.7258 48.0469C53.5116 48.0013 53.2564 47.9785 52.9602 47.9785H51.8596V50.1592C51.9462 50.1729 52.0351 50.1842 52.1262 50.1934C52.2219 50.1979 52.3176 50.2048 52.4133 50.2139C52.5136 50.2184 52.6116 50.223 52.7073 50.2275C52.8075 50.2321 52.8987 50.2344 52.9807 50.2344C53.2769 50.2344 53.5299 50.2093 53.7395 50.1592C53.9491 50.1045 54.1223 50.027 54.259 49.9268C54.4003 49.8265 54.5028 49.7057 54.5667 49.5645C54.6305 49.4186 54.6624 49.2568 54.6624 49.0791ZM62.4963 50.877C62.4963 50.9043 62.4872 50.9294 62.469 50.9521C62.4553 50.9704 62.4257 50.9863 62.3801 51C62.3391 51.0137 62.2821 51.0228 62.2092 51.0273C62.1409 51.0365 62.052 51.041 61.9426 51.041C61.815 51.041 61.7102 51.0365 61.6282 51.0273C61.5507 51.0182 61.4869 51.0068 61.4368 50.9932C61.3866 50.9749 61.3502 50.9544 61.3274 50.9316C61.3046 50.9043 61.2887 50.8747 61.2795 50.8428L60.6233 49.25C60.5413 49.0449 60.4524 48.8695 60.3567 48.7236C60.2655 48.5732 60.1584 48.4525 60.0354 48.3613C59.9124 48.2702 59.7734 48.2041 59.6184 48.1631C59.4635 48.1221 59.2857 48.1016 59.0852 48.1016H58.6067V50.8701C58.6067 50.8929 58.5953 50.9157 58.5725 50.9385C58.5497 50.9613 58.5155 50.9795 58.47 50.9932C58.4244 51.0068 58.3652 51.0182 58.2922 51.0273C58.2193 51.0365 58.135 51.041 58.0393 51.041C57.9436 51.041 57.8593 51.0365 57.7864 51.0273C57.7135 51.0182 57.6542 51.0068 57.6086 50.9932C57.5631 50.9795 57.5289 50.9613 57.5061 50.9385C57.4879 50.9157 57.4788 50.8929 57.4788 50.8701V44.6221C57.4788 44.5993 57.4879 44.5788 57.5061 44.5605C57.5289 44.5378 57.5631 44.5195 57.6086 44.5059C57.6542 44.4922 57.7135 44.4831 57.7864 44.4785C57.8593 44.4694 57.9436 44.4648 58.0393 44.4648C58.135 44.4648 58.2193 44.4694 58.2922 44.4785C58.3652 44.4831 58.4244 44.4922 58.47 44.5059C58.5155 44.5195 58.5497 44.5378 58.5725 44.5605C58.5953 44.5788 58.6067 44.5993 58.6067 44.6221V47.1992H59.0852C59.2584 47.1992 59.4156 47.181 59.5569 47.1445C59.7027 47.1035 59.8349 47.0397 59.9534 46.9531C60.0719 46.862 60.1767 46.7458 60.2678 46.6045C60.3635 46.4632 60.4501 46.2923 60.5276 46.0918L61.1018 44.6768C61.1109 44.6403 61.1269 44.6084 61.1497 44.5811C61.1724 44.5537 61.2066 44.5309 61.2522 44.5127C61.2978 44.4945 61.357 44.4831 61.4299 44.4785C61.5074 44.4694 61.6077 44.4648 61.7307 44.4648C61.8401 44.4648 61.929 44.4694 61.9973 44.4785C62.0702 44.4831 62.1249 44.4922 62.1614 44.5059C62.2024 44.5195 62.2297 44.5378 62.2434 44.5605C62.2571 44.5788 62.2639 44.5993 62.2639 44.6221C62.2639 44.6631 62.2571 44.7064 62.2434 44.752C62.2343 44.7975 62.2183 44.8499 62.1956 44.9092L61.6077 46.2627C61.5165 46.4906 61.4163 46.682 61.3069 46.8369C61.2021 46.9919 61.095 47.1217 60.9856 47.2266C60.8762 47.3268 60.7646 47.4066 60.6506 47.4658C60.5367 47.5205 60.4273 47.5638 60.3225 47.5957V47.6094C60.482 47.6641 60.6278 47.7301 60.76 47.8076C60.8967 47.8851 61.0221 47.9808 61.136 48.0947C61.2545 48.2087 61.3639 48.3454 61.4641 48.5049C61.5644 48.6598 61.6578 48.8398 61.7444 49.0449L62.4211 50.6035C62.4394 50.6354 62.453 50.665 62.4622 50.6924C62.4713 50.7197 62.4781 50.7471 62.4827 50.7744C62.4872 50.7972 62.4895 50.8177 62.4895 50.8359C62.4941 50.8496 62.4963 50.8633 62.4963 50.877ZM68.4026 50.8359C68.4026 50.8906 68.3844 50.9316 68.3479 50.959C68.3114 50.9863 68.2613 51.0068 68.1975 51.0205C68.1337 51.0342 68.0403 51.041 67.9172 51.041C67.7987 51.041 67.703 51.0342 67.6301 51.0205C67.5618 51.0068 67.5116 50.9863 67.4797 50.959C67.4478 50.9316 67.4319 50.8906 67.4319 50.8359V50.2207C67.163 50.5078 66.8622 50.7311 66.5295 50.8906C66.2014 51.0501 65.8528 51.1299 65.4836 51.1299C65.1601 51.1299 64.8661 51.0866 64.6018 51C64.342 50.918 64.1187 50.7972 63.9319 50.6377C63.7496 50.4782 63.606 50.2822 63.5012 50.0498C63.401 49.8174 63.3508 49.5531 63.3508 49.2568C63.3508 48.9105 63.4215 48.6097 63.5627 48.3545C63.704 48.0993 63.9068 47.8874 64.1711 47.7188C64.4355 47.5501 64.759 47.4248 65.1418 47.3428C65.5247 47.2562 65.9553 47.2129 66.4338 47.2129H67.2815V46.7344C67.2815 46.4974 67.2564 46.2878 67.2063 46.1055C67.1562 45.9232 67.0741 45.7728 66.9602 45.6543C66.8508 45.5312 66.7073 45.4401 66.5295 45.3809C66.3518 45.3171 66.1331 45.2852 65.8733 45.2852C65.5953 45.2852 65.3446 45.3193 65.1213 45.3877C64.9026 45.4515 64.7089 45.5244 64.5403 45.6064C64.3762 45.6839 64.2372 45.7568 64.1233 45.8252C64.0139 45.889 63.9319 45.9209 63.8772 45.9209C63.8407 45.9209 63.8088 45.9118 63.7815 45.8936C63.7542 45.8753 63.7291 45.848 63.7063 45.8115C63.6881 45.7751 63.6744 45.7295 63.6653 45.6748C63.6562 45.6156 63.6516 45.5518 63.6516 45.4834C63.6516 45.3695 63.6584 45.2806 63.6721 45.2168C63.6903 45.1484 63.7291 45.0846 63.7883 45.0254C63.8521 44.9661 63.9592 44.8978 64.1096 44.8203C64.26 44.7383 64.4332 44.6654 64.6292 44.6016C64.8251 44.5332 65.0393 44.4785 65.2717 44.4375C65.5042 44.3919 65.7389 44.3691 65.9758 44.3691C66.4179 44.3691 66.7939 44.4193 67.1038 44.5195C67.4137 44.6198 67.6643 44.7679 67.8557 44.9639C68.0471 45.1553 68.1861 45.3945 68.2727 45.6816C68.3593 45.9688 68.4026 46.3037 68.4026 46.6865V50.8359ZM67.2815 48.0264H66.3176C66.0077 48.0264 65.7389 48.0537 65.511 48.1084C65.2831 48.1585 65.094 48.236 64.9436 48.3408C64.7932 48.4411 64.6816 48.5641 64.6086 48.71C64.5403 48.8512 64.5061 49.0153 64.5061 49.2021C64.5061 49.5212 64.6064 49.7764 64.8069 49.9678C65.012 50.1546 65.2968 50.248 65.6614 50.248C65.9576 50.248 66.231 50.1729 66.4817 50.0225C66.7369 49.8721 67.0035 49.6419 67.2815 49.332V48.0264Z" fill="#818181"/>
</svg>
