<svg width="45" height="62" viewBox="0 0 45 62" fill="none" xmlns="http://www.w3.org/2000/svg">
<path d="M11.0068 54.4639C11.0068 54.7419 10.9704 54.9993 10.8975 55.2363C10.8291 55.4688 10.7311 55.6784 10.6035 55.8652C10.4759 56.0521 10.321 56.2161 10.1387 56.3574C9.96094 56.4987 9.75814 56.6172 9.53027 56.7129C9.30697 56.8086 9.06543 56.8815 8.80566 56.9316C8.55046 56.9772 8.25651 57 7.92383 57H5.61328C5.50846 57 5.4082 56.9658 5.3125 56.8975C5.22135 56.8245 5.17578 56.6992 5.17578 56.5215V48.6328C5.17578 48.4551 5.22135 48.332 5.3125 48.2637C5.4082 48.1908 5.50846 48.1543 5.61328 48.1543H7.62305C8.15169 48.1543 8.58464 48.2044 8.92188 48.3047C9.25911 48.4049 9.53939 48.5508 9.7627 48.7422C9.99056 48.9336 10.1615 49.1683 10.2754 49.4463C10.3893 49.7243 10.4463 50.0387 10.4463 50.3896C10.4463 50.5993 10.4212 50.7998 10.3711 50.9912C10.321 51.1826 10.2458 51.3604 10.1455 51.5244C10.0498 51.6839 9.92676 51.8275 9.77637 51.9551C9.63053 52.0827 9.46191 52.1875 9.27051 52.2695C9.51204 52.3151 9.73763 52.3994 9.94727 52.5225C10.1569 52.641 10.3392 52.7936 10.4941 52.9805C10.6536 53.1673 10.779 53.3861 10.8701 53.6367C10.9613 53.8874 11.0068 54.1631 11.0068 54.4639ZM9.23633 50.5059C9.23633 50.2917 9.20671 50.098 9.14746 49.9248C9.08822 49.7516 8.99479 49.6058 8.86719 49.4873C8.73958 49.3643 8.57324 49.2708 8.36816 49.207C8.16309 49.1432 7.89193 49.1113 7.55469 49.1113H6.33789V51.9756H7.67773C7.98307 51.9756 8.22917 51.9368 8.41602 51.8594C8.60286 51.7773 8.75781 51.6702 8.88086 51.5381C9.00391 51.4014 9.09277 51.2441 9.14746 51.0664C9.20671 50.8841 9.23633 50.6973 9.23633 50.5059ZM9.76953 54.5322C9.76953 54.2679 9.72624 54.0355 9.63965 53.835C9.55762 53.6344 9.43457 53.4658 9.27051 53.3291C9.111 53.1924 8.9082 53.0898 8.66211 53.0215C8.42057 52.9486 8.11523 52.9121 7.74609 52.9121H6.33789V56.0293H8.04688C8.31576 56.0293 8.55046 55.9974 8.75098 55.9336C8.9515 55.8698 9.12695 55.7764 9.27734 55.6533C9.43229 55.5257 9.55306 55.3685 9.63965 55.1816C9.72624 54.9948 9.76953 54.7783 9.76953 54.5322ZM19.8936 56.8291C19.8936 56.8656 19.8844 56.8975 19.8662 56.9248C19.848 56.9476 19.8184 56.9681 19.7773 56.9863C19.7363 57.0046 19.6794 57.0182 19.6064 57.0273C19.5335 57.0365 19.4401 57.041 19.3262 57.041C19.2168 57.041 19.1257 57.0365 19.0527 57.0273C18.9798 57.0182 18.9206 57.0046 18.875 56.9863C18.834 56.9681 18.8044 56.9476 18.7861 56.9248C18.7725 56.8975 18.7656 56.8656 18.7656 56.8291V50.6768C18.7656 50.6403 18.7725 50.6107 18.7861 50.5879C18.8044 50.5605 18.834 50.5378 18.875 50.5195C18.9206 50.4967 18.9798 50.4831 19.0527 50.4785C19.1257 50.4694 19.2168 50.4648 19.3262 50.4648C19.4401 50.4648 19.5335 50.4694 19.6064 50.4785C19.6794 50.4831 19.7363 50.4967 19.7773 50.5195C19.8184 50.5378 19.848 50.5605 19.8662 50.5879C19.8844 50.6107 19.8936 50.6403 19.8936 50.6768V56.8291ZM13.7891 52.8438C13.9577 52.8301 14.1263 52.821 14.2949 52.8164C14.4681 52.8073 14.6549 52.8027 14.8555 52.8027C15.3431 52.8027 15.7601 52.8529 16.1064 52.9531C16.4528 53.0488 16.7376 53.1878 16.9609 53.3701C17.1888 53.5524 17.3551 53.7712 17.46 54.0264C17.5648 54.277 17.6172 54.5596 17.6172 54.874C17.6172 55.1885 17.5602 55.4824 17.4463 55.7559C17.3369 56.0293 17.1615 56.2663 16.9199 56.4668C16.6829 56.6673 16.3776 56.8268 16.0039 56.9453C15.6302 57.0592 15.1813 57.1162 14.6572 57.1162C14.5342 57.1162 14.4111 57.1139 14.2881 57.1094C14.165 57.1094 14.0443 57.1048 13.9258 57.0957C13.8073 57.0911 13.6888 57.0843 13.5703 57.0752C13.4564 57.0661 13.3402 57.0547 13.2217 57.041C13.0303 57.0182 12.889 56.9567 12.7979 56.8564C12.7067 56.7562 12.6611 56.6035 12.6611 56.3984V50.6768C12.6611 50.6403 12.668 50.6107 12.6816 50.5879C12.6999 50.5605 12.7295 50.5378 12.7705 50.5195C12.8161 50.4967 12.873 50.4831 12.9414 50.4785C13.0143 50.4694 13.1032 50.4648 13.208 50.4648C13.4268 50.4648 13.5771 50.4831 13.6592 50.5195C13.7458 50.5514 13.7891 50.6038 13.7891 50.6768V52.8438ZM16.4414 54.9492C16.4414 54.7624 16.4118 54.5938 16.3525 54.4434C16.2979 54.2884 16.2044 54.1585 16.0723 54.0537C15.9447 53.9443 15.7738 53.8623 15.5596 53.8076C15.3454 53.7484 15.0833 53.7188 14.7734 53.7188C14.5866 53.7188 14.4134 53.7233 14.2539 53.7324C14.0944 53.7415 13.9395 53.7529 13.7891 53.7666V56.1318C13.9486 56.1501 14.1058 56.166 14.2607 56.1797C14.4157 56.1934 14.6048 56.2002 14.8281 56.2002C15.3841 56.2002 15.792 56.0908 16.0518 55.8721C16.3115 55.6488 16.4414 55.3411 16.4414 54.9492ZM27.4609 56.8359C27.4609 56.8678 27.4518 56.8975 27.4336 56.9248C27.4154 56.9521 27.3857 56.9749 27.3447 56.9932C27.3037 57.0068 27.2467 57.0182 27.1738 57.0273C27.1009 57.0365 27.0098 57.041 26.9004 57.041C26.791 57.041 26.6999 57.0365 26.627 57.0273C26.554 57.0182 26.4948 57.0068 26.4492 56.9932C26.4036 56.9749 26.3717 56.9521 26.3535 56.9248C26.3353 56.8975 26.3262 56.8678 26.3262 56.8359V53.2949C26.3262 53.1172 26.3307 52.9372 26.3398 52.7549C26.349 52.568 26.3604 52.3857 26.374 52.208C26.2692 52.3903 26.153 52.5703 26.0254 52.748C25.9023 52.9212 25.777 53.0944 25.6494 53.2676L23.0381 56.8359C23.0062 56.8724 22.9766 56.9043 22.9492 56.9316C22.9264 56.959 22.8945 56.9818 22.8535 57C22.8171 57.0137 22.7692 57.0228 22.71 57.0273C22.6507 57.0365 22.5778 57.041 22.4912 57.041C22.391 57.041 22.3089 57.0365 22.2451 57.0273C22.1813 57.0182 22.1289 57.0068 22.0879 56.9932C22.0514 56.9749 22.0241 56.9521 22.0059 56.9248C21.9922 56.8975 21.9854 56.8678 21.9854 56.8359V50.6699C21.9854 50.638 21.9922 50.6084 22.0059 50.5811C22.0241 50.5537 22.0537 50.5309 22.0947 50.5127C22.1403 50.4945 22.1995 50.4831 22.2725 50.4785C22.3454 50.4694 22.4342 50.4648 22.5391 50.4648C22.7578 50.4648 22.9082 50.4831 22.9902 50.5195C23.0723 50.5514 23.1133 50.6016 23.1133 50.6699V54.2314C23.1133 54.4092 23.1087 54.5869 23.0996 54.7646C23.0905 54.9378 23.0791 55.111 23.0654 55.2842C23.1702 55.111 23.2751 54.9424 23.3799 54.7783C23.4893 54.6097 23.6055 54.4456 23.7285 54.2861L26.374 50.6699C26.4014 50.6335 26.4287 50.6016 26.4561 50.5742C26.488 50.5469 26.5244 50.5264 26.5654 50.5127C26.611 50.4945 26.6634 50.4831 26.7227 50.4785C26.7819 50.4694 26.8594 50.4648 26.9551 50.4648C27.0508 50.4648 27.1305 50.4694 27.1943 50.4785C27.2627 50.4831 27.3151 50.4945 27.3516 50.5127C27.3926 50.5309 27.4199 50.5537 27.4336 50.5811C27.4518 50.6084 27.4609 50.6403 27.4609 50.6768V56.8359ZM26.8594 47.7715C26.8594 48.0312 26.8206 48.2751 26.7432 48.5029C26.6657 48.7308 26.5426 48.9313 26.374 49.1045C26.2054 49.2731 25.9889 49.4076 25.7246 49.5078C25.4603 49.6035 25.139 49.6514 24.7607 49.6514C24.4144 49.6514 24.109 49.6081 23.8447 49.5215C23.585 49.4349 23.3662 49.3118 23.1885 49.1523C23.0153 48.9883 22.8831 48.79 22.792 48.5576C22.7054 48.3252 22.6621 48.0632 22.6621 47.7715C22.6621 47.7259 22.6689 47.6872 22.6826 47.6553C22.7008 47.6234 22.7305 47.5983 22.7715 47.5801C22.8171 47.5618 22.874 47.5482 22.9424 47.5391C23.0153 47.5299 23.1019 47.5254 23.2021 47.5254C23.3115 47.5254 23.3981 47.5322 23.4619 47.5459C23.5257 47.555 23.5736 47.571 23.6055 47.5938C23.6419 47.6165 23.6647 47.6462 23.6738 47.6826C23.6875 47.7191 23.6943 47.7624 23.6943 47.8125C23.6943 47.9583 23.7171 48.0928 23.7627 48.2158C23.8083 48.3389 23.8766 48.446 23.9678 48.5371C24.0635 48.6283 24.1774 48.6989 24.3096 48.749C24.4417 48.7992 24.5944 48.8242 24.7676 48.8242C24.9362 48.8242 25.0843 48.7992 25.2119 48.749C25.3441 48.6989 25.4557 48.6283 25.5469 48.5371C25.638 48.446 25.7064 48.3366 25.752 48.209C25.7975 48.0814 25.8203 47.9447 25.8203 47.7988C25.8203 47.7533 25.8249 47.7145 25.834 47.6826C25.8477 47.6462 25.8704 47.6165 25.9023 47.5938C25.9388 47.571 25.9867 47.555 26.0459 47.5459C26.1097 47.5322 26.194 47.5254 26.2988 47.5254C26.4082 47.5254 26.4971 47.5299 26.5654 47.5391C26.6383 47.5482 26.6953 47.5618 26.7363 47.5801C26.7819 47.5983 26.8138 47.6234 26.832 47.6553C26.8503 47.6872 26.8594 47.7259 26.8594 47.7715ZM33.8662 51.0117C33.8662 51.1029 33.8617 51.1803 33.8525 51.2441C33.8434 51.3079 33.8275 51.3604 33.8047 51.4014C33.7865 51.4424 33.7637 51.4743 33.7363 51.4971C33.709 51.5153 33.6748 51.5244 33.6338 51.5244H31.7881V56.8291C31.7881 56.8656 31.779 56.8975 31.7607 56.9248C31.7425 56.9476 31.7129 56.9681 31.6719 56.9863C31.6309 57.0046 31.5739 57.0182 31.501 57.0273C31.4281 57.0365 31.3346 57.041 31.2207 57.041C31.1113 57.041 31.0202 57.0365 30.9473 57.0273C30.8743 57.0182 30.8151 57.0046 30.7695 56.9863C30.7285 56.9681 30.6989 56.9476 30.6807 56.9248C30.667 56.8975 30.6602 56.8656 30.6602 56.8291V51.5244H28.8145C28.778 51.5244 28.7438 51.5153 28.7119 51.4971C28.6846 51.4743 28.6618 51.4424 28.6436 51.4014C28.6253 51.3604 28.6094 51.3079 28.5957 51.2441C28.5866 51.1758 28.582 51.096 28.582 51.0049C28.582 50.9229 28.5866 50.8499 28.5957 50.7861C28.6094 50.7223 28.6253 50.6699 28.6436 50.6289C28.6663 50.5833 28.6914 50.5514 28.7188 50.5332C28.7461 50.5104 28.778 50.499 28.8145 50.499H33.6338C33.6702 50.499 33.7021 50.5104 33.7295 50.5332C33.7614 50.5514 33.7865 50.5833 33.8047 50.6289C33.8229 50.6699 33.8366 50.7246 33.8457 50.793C33.8594 50.8568 33.8662 50.9297 33.8662 51.0117ZM40.4629 56.8359C40.4629 56.8678 40.4538 56.8975 40.4355 56.9248C40.4173 56.9521 40.3877 56.9749 40.3467 56.9932C40.3057 57.0068 40.2487 57.0182 40.1758 57.0273C40.1029 57.0365 40.0117 57.041 39.9023 57.041C39.793 57.041 39.7018 57.0365 39.6289 57.0273C39.556 57.0182 39.4967 57.0068 39.4512 56.9932C39.4056 56.9749 39.3737 56.9521 39.3555 56.9248C39.3372 56.8975 39.3281 56.8678 39.3281 56.8359V53.2949C39.3281 53.1172 39.3327 52.9372 39.3418 52.7549C39.3509 52.568 39.3623 52.3857 39.376 52.208C39.2712 52.3903 39.1549 52.5703 39.0273 52.748C38.9043 52.9212 38.779 53.0944 38.6514 53.2676L36.04 56.8359C36.0081 56.8724 35.9785 56.9043 35.9512 56.9316C35.9284 56.959 35.8965 56.9818 35.8555 57C35.819 57.0137 35.7712 57.0228 35.7119 57.0273C35.6527 57.0365 35.5798 57.041 35.4932 57.041C35.3929 57.041 35.3109 57.0365 35.2471 57.0273C35.1833 57.0182 35.1309 57.0068 35.0898 56.9932C35.0534 56.9749 35.026 56.9521 35.0078 56.9248C34.9941 56.8975 34.9873 56.8678 34.9873 56.8359V50.6699C34.9873 50.638 34.9941 50.6084 35.0078 50.5811C35.026 50.5537 35.0557 50.5309 35.0967 50.5127C35.1423 50.4945 35.2015 50.4831 35.2744 50.4785C35.3473 50.4694 35.4362 50.4648 35.541 50.4648C35.7598 50.4648 35.9102 50.4831 35.9922 50.5195C36.0742 50.5514 36.1152 50.6016 36.1152 50.6699V54.2314C36.1152 54.4092 36.1107 54.5869 36.1016 54.7646C36.0924 54.9378 36.0811 55.111 36.0674 55.2842C36.1722 55.111 36.277 54.9424 36.3818 54.7783C36.4912 54.6097 36.6074 54.4456 36.7305 54.2861L39.376 50.6699C39.4033 50.6335 39.4307 50.6016 39.458 50.5742C39.4899 50.5469 39.5264 50.5264 39.5674 50.5127C39.613 50.4945 39.6654 50.4831 39.7246 50.4785C39.7839 50.4694 39.8613 50.4648 39.957 50.4648C40.0527 50.4648 40.1325 50.4694 40.1963 50.4785C40.2646 50.4831 40.3171 50.4945 40.3535 50.5127C40.3945 50.5309 40.4219 50.5537 40.4355 50.5811C40.4538 50.6084 40.4629 50.6403 40.4629 50.6768V56.8359Z" fill="#818181"/>
<path d="M22.5 20.625C23.9834 20.625 25.4334 20.1852 26.6668 19.361C27.9001 18.5369 28.8614 17.3656 29.4291 15.9951C29.9968 14.6247 30.1453 13.1167 29.8559 11.6618C29.5665 10.207 28.8522 8.8706 27.8033 7.8217C26.7544 6.77281 25.418 6.0585 23.9632 5.76911C22.5083 5.47972 21.0003 5.62825 19.6299 6.19591C18.2594 6.76357 17.0881 7.72486 16.264 8.95823C15.4399 10.1916 15 11.6417 15 13.125C15 15.1141 15.7902 17.0218 17.1967 18.4283C18.6032 19.8348 20.5109 20.625 22.5 20.625Z" fill="white"/>
<path d="M33.75 39.375C34.2473 39.375 34.7242 39.1775 35.0758 38.8258C35.4275 38.4742 35.625 37.9973 35.625 37.5C35.625 34.019 34.2422 30.6806 31.7808 28.2192C29.3194 25.7578 25.981 24.375 22.5 24.375C19.019 24.375 15.6806 25.7578 13.2192 28.2192C10.7578 30.6806 9.375 34.019 9.375 37.5C9.375 37.9973 9.57254 38.4742 9.92418 38.8258C10.2758 39.1775 10.7527 39.375 11.25 39.375H33.75Z" fill="white"/>
</svg>
