<svg width="51" height="56" viewBox="0 0 51 56" fill="none" xmlns="http://www.w3.org/2000/svg">
<g clip-path="url(#clip0_8_21)">
<path d="M18.1521 26.4C16.339 26.4 14.8556 27.885 14.8556 29.7C14.8556 31.515 16.339 33 18.1521 33C19.9652 33 21.4487 31.515 21.4487 29.7C21.4487 27.885 19.9652 26.4 18.1521 26.4ZM8.26245 0V3.3H11.559L17.4928 15.84L15.1852 19.8C15.0204 20.295 14.8556 20.955 14.8556 21.45C14.8556 23.265 16.339 24.75 18.1521 24.75H37.9315V21.45H18.8115C18.6466 21.45 18.4818 21.285 18.4818 21.12V20.9549L19.9652 18.1499H32.1625C33.4812 18.1499 34.4701 17.4899 34.9646 16.4999L40.8984 5.775C41.2281 5.445 41.2281 5.28 41.2281 4.95C41.2281 3.96 40.5688 3.3 39.5798 3.3H15.1852L13.7018 0H8.26245ZM34.635 26.4C32.8218 26.4 31.3384 27.885 31.3384 29.7C31.3384 31.515 32.8218 33 34.635 33C36.4481 33 37.9315 31.515 37.9315 29.7C37.9315 27.885 36.4481 26.4 34.635 26.4Z" fill="white"/>
</g>
<path d="M7.3324 50.8154C7.3324 50.8564 7.32328 50.8906 7.30505 50.918C7.28682 50.9453 7.25492 50.9681 7.20935 50.9863C7.16833 51.0046 7.10909 51.0182 7.03162 51.0273C6.95414 51.0365 6.85844 51.041 6.74451 51.041C6.61235 51.041 6.50525 51.0342 6.42322 51.0205C6.34574 51.0114 6.28194 50.9954 6.23181 50.9727C6.18624 50.9499 6.14978 50.9225 6.12244 50.8906C6.09965 50.8542 6.08142 50.8109 6.06775 50.7607L5.25427 48.6006C5.1449 48.3089 5.02413 48.0605 4.89197 47.8555C4.75981 47.6504 4.60714 47.4818 4.43396 47.3496C4.26534 47.2129 4.07166 47.1126 3.85291 47.0488C3.63416 46.985 3.38806 46.9531 3.11462 46.9531H2.62244V50.8223C2.62244 50.8587 2.61332 50.8906 2.59509 50.918C2.57686 50.9453 2.54496 50.9681 2.49939 50.9863C2.45382 51 2.39229 51.0114 2.31482 51.0205C2.2419 51.0342 2.14848 51.041 2.03455 51.041C1.92517 51.041 1.83175 51.0342 1.75427 51.0205C1.6768 51.0114 1.61528 51 1.5697 50.9863C1.52413 50.9681 1.49223 50.9453 1.474 50.918C1.45577 50.8906 1.44666 50.8587 1.44666 50.8223V42.3252C1.44666 42.2933 1.45577 42.2637 1.474 42.2363C1.49223 42.209 1.52413 42.1885 1.5697 42.1748C1.61528 42.1566 1.6768 42.1429 1.75427 42.1338C1.83175 42.1201 1.92517 42.1133 2.03455 42.1133C2.14848 42.1133 2.2419 42.1201 2.31482 42.1338C2.39229 42.1429 2.45382 42.1566 2.49939 42.1748C2.54496 42.1885 2.57686 42.209 2.59509 42.2363C2.61332 42.2637 2.62244 42.2933 2.62244 42.3252V45.9414H3.11462C3.38806 45.9414 3.62732 45.9095 3.8324 45.8457C4.03748 45.7773 4.21749 45.6771 4.37244 45.5449C4.53194 45.4128 4.67094 45.2464 4.78943 45.0459C4.91248 44.8408 5.02185 44.5993 5.11755 44.3213L5.78748 42.3936C5.80115 42.348 5.81938 42.307 5.84216 42.2705C5.86495 42.234 5.89913 42.2044 5.9447 42.1816C5.99028 42.1589 6.0518 42.1429 6.12927 42.1338C6.2113 42.1201 6.31612 42.1133 6.44373 42.1133C6.56222 42.1133 6.65792 42.1178 6.73083 42.127C6.80375 42.1361 6.86072 42.1497 6.90173 42.168C6.94731 42.1862 6.97693 42.209 6.9906 42.2363C7.00427 42.2637 7.01111 42.2956 7.01111 42.332C7.01111 42.3822 7.00199 42.4391 6.98376 42.5029C6.97009 42.5622 6.94958 42.6328 6.92224 42.7148L6.21814 44.5537C6.11788 44.8317 6.01306 45.071 5.90369 45.2715C5.79887 45.472 5.68266 45.6452 5.55505 45.791C5.42745 45.9323 5.28845 46.0508 5.13806 46.1465C4.98767 46.2376 4.81905 46.3105 4.6322 46.3652V46.3789C4.84639 46.4564 5.03552 46.5475 5.19958 46.6523C5.3682 46.7526 5.52315 46.8779 5.66443 47.0283C5.8057 47.1787 5.93559 47.361 6.05408 47.5752C6.17257 47.7848 6.28878 48.0378 6.40271 48.334L7.23669 50.4395C7.28227 50.5579 7.30961 50.6423 7.31873 50.6924C7.32784 50.738 7.3324 50.779 7.3324 50.8154ZM14.4349 47.6846C14.4349 48.1859 14.3689 48.6484 14.2367 49.0723C14.1045 49.4915 13.9063 49.8538 13.642 50.1592C13.3822 50.4645 13.0541 50.7038 12.6576 50.877C12.2657 51.0456 11.8099 51.1299 11.2904 51.1299C10.7845 51.1299 10.3425 51.0547 9.96423 50.9043C9.59054 50.7539 9.27836 50.5352 9.02771 50.248C8.77706 49.9609 8.59021 49.6123 8.46716 49.2021C8.34412 48.792 8.28259 48.3271 8.28259 47.8076C8.28259 47.3063 8.34639 46.846 8.474 46.4268C8.60616 46.0029 8.80212 45.6383 9.06189 45.333C9.32621 45.0277 9.65434 44.7907 10.0463 44.6221C10.4382 44.4535 10.8962 44.3691 11.4203 44.3691C11.9261 44.3691 12.3659 44.4443 12.7396 44.5947C13.1179 44.7451 13.4323 44.9639 13.683 45.251C13.9336 45.5381 14.1205 45.8867 14.2435 46.2969C14.3711 46.707 14.4349 47.1696 14.4349 47.6846ZM13.2455 47.7598C13.2455 47.4271 13.2136 47.1126 13.1498 46.8164C13.0905 46.5202 12.9903 46.2604 12.849 46.0371C12.7077 45.8138 12.5163 45.6383 12.2748 45.5107C12.0332 45.3786 11.7325 45.3125 11.3724 45.3125C11.0398 45.3125 10.7526 45.3717 10.5111 45.4902C10.2741 45.6087 10.0782 45.7773 9.92322 45.9961C9.76827 46.2103 9.65206 46.4655 9.57458 46.7617C9.50167 47.0579 9.46521 47.3815 9.46521 47.7324C9.46521 48.0697 9.49483 48.3864 9.55408 48.6826C9.61788 48.9788 9.72042 49.2386 9.86169 49.4619C10.0075 49.6807 10.2012 49.8561 10.4427 49.9883C10.6843 50.1159 10.9851 50.1797 11.3451 50.1797C11.6732 50.1797 11.958 50.1204 12.1996 50.002C12.4411 49.8835 12.6394 49.7171 12.7943 49.5029C12.9493 49.2887 13.0632 49.0335 13.1361 48.7373C13.209 48.4411 13.2455 48.1152 13.2455 47.7598ZM21.7562 47.6572C21.7562 48.195 21.697 48.6781 21.5785 49.1064C21.4646 49.5348 21.2937 49.8994 21.0658 50.2002C20.8425 50.4964 20.5645 50.7266 20.2318 50.8906C19.8991 51.0501 19.5186 51.1299 19.0902 51.1299C18.9079 51.1299 18.7393 51.1117 18.5844 51.0752C18.4294 51.0387 18.2767 50.9818 18.1263 50.9043C17.9805 50.8268 17.8347 50.7288 17.6888 50.6104C17.543 50.4919 17.3881 50.3529 17.224 50.1934V53.2695C17.224 53.306 17.2149 53.3379 17.1967 53.3652C17.1784 53.3926 17.1488 53.4154 17.1078 53.4336C17.0668 53.4518 17.0098 53.4655 16.9369 53.4746C16.864 53.4837 16.7705 53.4883 16.6566 53.4883C16.5472 53.4883 16.4561 53.4837 16.3832 53.4746C16.3103 53.4655 16.251 53.4518 16.2054 53.4336C16.1644 53.4154 16.1348 53.3926 16.1166 53.3652C16.1029 53.3379 16.0961 53.306 16.0961 53.2695V44.6768C16.0961 44.6357 16.1029 44.6038 16.1166 44.5811C16.1302 44.5537 16.1576 44.5309 16.1986 44.5127C16.2396 44.4945 16.292 44.4831 16.3558 44.4785C16.4196 44.4694 16.4971 44.4648 16.5883 44.4648C16.684 44.4648 16.7614 44.4694 16.8207 44.4785C16.8845 44.4831 16.9369 44.4945 16.9779 44.5127C17.0189 44.5309 17.0463 44.5537 17.0599 44.5811C17.0782 44.6038 17.0873 44.6357 17.0873 44.6768V45.5039C17.2741 45.3125 17.4541 45.1462 17.6273 45.0049C17.8005 44.8636 17.9737 44.7474 18.1469 44.6562C18.3246 44.5605 18.5046 44.4899 18.6869 44.4443C18.8737 44.3942 19.0697 44.3691 19.2748 44.3691C19.7214 44.3691 20.1019 44.4557 20.4164 44.6289C20.7308 44.8021 20.986 45.0391 21.182 45.3398C21.3825 45.6406 21.5284 45.9915 21.6195 46.3926C21.7107 46.7891 21.7562 47.2106 21.7562 47.6572ZM20.5668 47.7871C20.5668 47.4727 20.5417 47.1696 20.4916 46.8779C20.446 46.5817 20.364 46.3197 20.2455 46.0918C20.1316 45.8639 19.9766 45.6816 19.7806 45.5449C19.5847 45.4082 19.3409 45.3398 19.0492 45.3398C18.9034 45.3398 18.7598 45.3626 18.6185 45.4082C18.4773 45.4492 18.3337 45.5176 18.1879 45.6133C18.042 45.7044 17.8894 45.8275 17.7299 45.9824C17.5704 46.1328 17.4017 46.3197 17.224 46.543V48.9902C17.5339 49.3685 17.8278 49.6579 18.1058 49.8584C18.3838 50.0589 18.6755 50.1592 18.9808 50.1592C19.2634 50.1592 19.5049 50.0908 19.7054 49.9541C19.9105 49.8174 20.0746 49.6351 20.1976 49.4072C20.3252 49.1794 20.4187 48.9242 20.4779 48.6416C20.5372 48.359 20.5668 48.0742 20.5668 47.7871ZM27.7103 49.127C27.7103 49.4368 27.6488 49.7148 27.5258 49.9609C27.4027 50.207 27.225 50.4189 26.9926 50.5967C26.7647 50.7699 26.4844 50.902 26.1517 50.9932C25.8191 51.0843 25.4408 51.1299 25.017 51.1299C24.78 51.1299 24.5567 51.1117 24.347 51.0752C24.142 51.0433 23.9528 51.0023 23.7797 50.9521C23.611 50.8975 23.4675 50.8405 23.349 50.7812C23.2351 50.7174 23.153 50.665 23.1029 50.624C23.0573 50.583 23.0232 50.5465 23.0004 50.5146C22.9776 50.4782 22.9616 50.4395 22.9525 50.3984C22.9434 50.3574 22.9343 50.3073 22.9252 50.248C22.9206 50.1888 22.9183 50.1182 22.9183 50.0361C22.9183 49.9632 22.9229 49.9017 22.932 49.8516C22.9411 49.8014 22.9525 49.7604 22.9662 49.7285C22.9799 49.6966 22.9958 49.6738 23.014 49.6602C23.0323 49.6419 23.0573 49.6328 23.0892 49.6328C23.1394 49.6328 23.2077 49.6647 23.2943 49.7285C23.3855 49.7878 23.5062 49.8561 23.6566 49.9336C23.807 50.0065 23.9916 50.0749 24.2103 50.1387C24.4336 50.2025 24.7071 50.2344 25.0306 50.2344C25.2585 50.2344 25.4636 50.2116 25.6459 50.166C25.8282 50.1159 25.9831 50.0452 26.1107 49.9541C26.2383 49.8584 26.3363 49.7399 26.4047 49.5986C26.4776 49.4574 26.514 49.2933 26.514 49.1064C26.514 48.9469 26.4799 48.8034 26.4115 48.6758C26.3431 48.5482 26.236 48.4411 26.0902 48.3545C25.9444 48.2633 25.7575 48.1927 25.5297 48.1426C25.3018 48.0924 25.0261 48.0674 24.7025 48.0674H24.0189C23.9733 48.0674 23.9369 48.0605 23.9095 48.0469C23.8822 48.0286 23.8571 48.0036 23.8344 47.9717C23.8161 47.9352 23.8024 47.8896 23.7933 47.835C23.7888 47.7757 23.7865 47.7074 23.7865 47.6299C23.7865 47.557 23.7911 47.4932 23.8002 47.4385C23.8093 47.3838 23.823 47.3405 23.8412 47.3086C23.8594 47.2767 23.8822 47.2539 23.9095 47.2402C23.9369 47.222 23.9711 47.2129 24.0121 47.2129H24.6752C24.9623 47.2129 25.2084 47.1901 25.4135 47.1445C25.6231 47.099 25.7963 47.0329 25.933 46.9463C26.0743 46.8551 26.1768 46.7458 26.2406 46.6182C26.309 46.486 26.3431 46.3356 26.3431 46.167C26.3431 46.0166 26.3112 45.8844 26.2474 45.7705C26.1836 45.6566 26.097 45.5632 25.9877 45.4902C25.8829 45.4128 25.753 45.3558 25.598 45.3193C25.4431 45.2783 25.2767 45.2578 25.099 45.2578C24.821 45.2578 24.5726 45.2897 24.3539 45.3535C24.1397 45.4173 23.9528 45.488 23.7933 45.5654C23.6384 45.6383 23.5108 45.7067 23.4105 45.7705C23.3103 45.8298 23.2396 45.8594 23.1986 45.8594C23.1758 45.8594 23.153 45.8548 23.1302 45.8457C23.112 45.832 23.0938 45.8115 23.0756 45.7842C23.0619 45.7523 23.0505 45.7113 23.0414 45.6611C23.0368 45.6064 23.0345 45.5426 23.0345 45.4697C23.0345 45.3376 23.0437 45.2327 23.0619 45.1553C23.0847 45.0778 23.1234 45.0117 23.1781 44.957C23.2328 44.9023 23.3285 44.8385 23.4652 44.7656C23.6019 44.6927 23.7614 44.6289 23.9437 44.5742C24.1306 44.515 24.3311 44.4671 24.5453 44.4307C24.764 44.3896 24.9873 44.3691 25.2152 44.3691C25.5479 44.3691 25.8532 44.4056 26.1312 44.4785C26.4092 44.5469 26.6462 44.654 26.8422 44.7998C27.0427 44.9411 27.1976 45.1188 27.307 45.333C27.4164 45.5426 27.4711 45.7887 27.4711 46.0713C27.4711 46.2399 27.4437 46.4017 27.389 46.5566C27.3344 46.707 27.2546 46.846 27.1498 46.9736C27.0495 47.1012 26.9242 47.2152 26.7738 47.3154C26.6234 47.4157 26.4571 47.4932 26.2748 47.5479L26.2611 47.5547C26.4388 47.5729 26.6143 47.6253 26.7875 47.7119C26.9607 47.7939 27.1156 47.9033 27.2523 48.04C27.389 48.1722 27.4984 48.3317 27.5804 48.5186C27.667 48.7008 27.7103 48.9036 27.7103 49.127ZM34.847 50.8359C34.847 50.8678 34.8379 50.8975 34.8197 50.9248C34.8015 50.9521 34.7719 50.9749 34.7308 50.9932C34.6898 51.0068 34.6329 51.0182 34.5599 51.0273C34.487 51.0365 34.3959 51.041 34.2865 51.041C34.1771 51.041 34.086 51.0365 34.0131 51.0273C33.9401 51.0182 33.8809 51.0068 33.8353 50.9932C33.7898 50.9749 33.7579 50.9521 33.7396 50.9248C33.7214 50.8975 33.7123 50.8678 33.7123 50.8359V47.2949C33.7123 47.1172 33.7168 46.9372 33.726 46.7549C33.7351 46.568 33.7465 46.3857 33.7601 46.208C33.6553 46.3903 33.5391 46.5703 33.4115 46.748C33.2885 46.9212 33.1631 47.0944 33.0355 47.2676L30.4242 50.8359C30.3923 50.8724 30.3627 50.9043 30.3353 50.9316C30.3125 50.959 30.2806 50.9818 30.2396 51C30.2032 51.0137 30.1553 51.0228 30.0961 51.0273C30.0368 51.0365 29.9639 51.041 29.8773 51.041C29.7771 51.041 29.695 51.0365 29.6312 51.0273C29.5674 51.0182 29.515 51.0068 29.474 50.9932C29.4375 50.9749 29.4102 50.9521 29.392 50.9248C29.3783 50.8975 29.3715 50.8678 29.3715 50.8359V44.6699C29.3715 44.638 29.3783 44.6084 29.392 44.5811C29.4102 44.5537 29.4398 44.5309 29.4808 44.5127C29.5264 44.4945 29.5857 44.4831 29.6586 44.4785C29.7315 44.4694 29.8204 44.4648 29.9252 44.4648C30.1439 44.4648 30.2943 44.4831 30.3763 44.5195C30.4584 44.5514 30.4994 44.6016 30.4994 44.6699V48.2314C30.4994 48.4092 30.4948 48.5869 30.4857 48.7646C30.4766 48.9378 30.4652 49.111 30.4515 49.2842C30.5564 49.111 30.6612 48.9424 30.766 48.7783C30.8754 48.6097 30.9916 48.4456 31.1146 48.2861L33.7601 44.6699C33.7875 44.6335 33.8148 44.6016 33.8422 44.5742C33.8741 44.5469 33.9105 44.5264 33.9515 44.5127C33.9971 44.4945 34.0495 44.4831 34.1088 44.4785C34.168 44.4694 34.2455 44.4648 34.3412 44.4648C34.4369 44.4648 34.5166 44.4694 34.5804 44.4785C34.6488 44.4831 34.7012 44.4945 34.7377 44.5127C34.7787 44.5309 34.806 44.5537 34.8197 44.5811C34.8379 44.6084 34.847 44.6403 34.847 44.6768V50.8359ZM42.3392 50.8291C42.3392 50.8656 42.3301 50.8975 42.3119 50.9248C42.2937 50.9476 42.264 50.9681 42.223 50.9863C42.182 51.0046 42.125 51.0182 42.0521 51.0273C41.9792 51.0365 41.8881 51.041 41.7787 51.041C41.6648 51.041 41.5713 51.0365 41.4984 51.0273C41.4255 51.0182 41.3685 51.0046 41.3275 50.9863C41.2865 50.9681 41.2569 50.9476 41.2386 50.9248C41.2204 50.8975 41.2113 50.8656 41.2113 50.8291V48.1289H38.0736V50.8291C38.0736 50.8656 38.0645 50.8975 38.0463 50.9248C38.028 50.9476 37.9984 50.9681 37.9574 50.9863C37.9164 51.0046 37.8594 51.0182 37.7865 51.0273C37.7136 51.0365 37.6202 51.041 37.5062 51.041C37.3969 51.041 37.3057 51.0365 37.2328 51.0273C37.1599 51.0182 37.1006 51.0046 37.0551 50.9863C37.014 50.9681 36.9844 50.9476 36.9662 50.9248C36.9525 50.8975 36.9457 50.8656 36.9457 50.8291V44.6768C36.9457 44.6403 36.9525 44.6107 36.9662 44.5879C36.9844 44.5605 37.014 44.5378 37.0551 44.5195C37.1006 44.4967 37.1599 44.4831 37.2328 44.4785C37.3057 44.4694 37.3969 44.4648 37.5062 44.4648C37.6202 44.4648 37.7136 44.4694 37.7865 44.4785C37.8594 44.4831 37.9164 44.4967 37.9574 44.5195C37.9984 44.5378 38.028 44.5605 38.0463 44.5879C38.0645 44.6107 38.0736 44.6403 38.0736 44.6768V47.1787H41.2113V44.6768C41.2113 44.6403 41.2204 44.6107 41.2386 44.5879C41.2569 44.5605 41.2865 44.5378 41.3275 44.5195C41.3685 44.4967 41.4255 44.4831 41.4984 44.4785C41.5713 44.4694 41.6648 44.4648 41.7787 44.4648C41.8881 44.4648 41.9792 44.4694 42.0521 44.4785C42.125 44.4831 42.182 44.4967 42.223 44.5195C42.264 44.5378 42.2937 44.5605 42.3119 44.5879C42.3301 44.6107 42.3392 44.6403 42.3392 44.6768V50.8291ZM49.0726 50.8359C49.0726 50.8906 49.0544 50.9316 49.0179 50.959C48.9815 50.9863 48.9314 51.0068 48.8676 51.0205C48.8038 51.0342 48.7103 51.041 48.5873 51.041C48.4688 51.041 48.3731 51.0342 48.3002 51.0205C48.2318 51.0068 48.1817 50.9863 48.1498 50.959C48.1179 50.9316 48.1019 50.8906 48.1019 50.8359V50.2207C47.833 50.5078 47.5323 50.7311 47.1996 50.8906C46.8715 51.0501 46.5228 51.1299 46.1537 51.1299C45.8301 51.1299 45.5362 51.0866 45.2719 51C45.0121 50.918 44.7888 50.7972 44.6019 50.6377C44.4196 50.4782 44.2761 50.2822 44.1713 50.0498C44.071 49.8174 44.0209 49.5531 44.0209 49.2568C44.0209 48.9105 44.0915 48.6097 44.2328 48.3545C44.3741 48.0993 44.5769 47.8874 44.8412 47.7188C45.1055 47.5501 45.4291 47.4248 45.8119 47.3428C46.1947 47.2562 46.6254 47.2129 47.1039 47.2129H47.9515V46.7344C47.9515 46.4974 47.9265 46.2878 47.8763 46.1055C47.8262 45.9232 47.7442 45.7728 47.6302 45.6543C47.5209 45.5312 47.3773 45.4401 47.1996 45.3809C47.0219 45.3171 46.8031 45.2852 46.5433 45.2852C46.2653 45.2852 46.0147 45.3193 45.7914 45.3877C45.5726 45.4515 45.3789 45.5244 45.2103 45.6064C45.0463 45.6839 44.9073 45.7568 44.7933 45.8252C44.684 45.889 44.6019 45.9209 44.5472 45.9209C44.5108 45.9209 44.4789 45.9118 44.4515 45.8936C44.4242 45.8753 44.3991 45.848 44.3763 45.8115C44.3581 45.7751 44.3444 45.7295 44.3353 45.6748C44.3262 45.6156 44.3217 45.5518 44.3217 45.4834C44.3217 45.3695 44.3285 45.2806 44.3422 45.2168C44.3604 45.1484 44.3991 45.0846 44.4584 45.0254C44.5222 44.9661 44.6293 44.8978 44.7797 44.8203C44.9301 44.7383 45.1032 44.6654 45.2992 44.6016C45.4952 44.5332 45.7094 44.4785 45.9418 44.4375C46.1742 44.3919 46.4089 44.3691 46.6459 44.3691C47.0879 44.3691 47.4639 44.4193 47.7738 44.5195C48.0837 44.6198 48.3344 44.7679 48.5258 44.9639C48.7172 45.1553 48.8562 45.3945 48.9427 45.6816C49.0293 45.9688 49.0726 46.3037 49.0726 46.6865V50.8359ZM47.9515 48.0264H46.9877C46.6778 48.0264 46.4089 48.0537 46.181 48.1084C45.9532 48.1585 45.764 48.236 45.6136 48.3408C45.4633 48.4411 45.3516 48.5641 45.2787 48.71C45.2103 48.8512 45.1761 49.0153 45.1761 49.2021C45.1761 49.5212 45.2764 49.7764 45.4769 49.9678C45.682 50.1546 45.9668 50.248 46.3314 50.248C46.6276 50.248 46.9011 50.1729 47.1517 50.0225C47.4069 49.8721 47.6735 49.6419 47.9515 49.332V48.0264Z" fill="#818181"/>
<defs>
<clipPath id="clip0_8_21">
<rect width="32.9656" height="33" fill="white" transform="translate(8.26245)"/>
</clipPath>
</defs>
</svg>
