<svg width="22" height="21" viewBox="0 0 22 21" fill="none" xmlns="http://www.w3.org/2000/svg">
<path d="M20.754 17.8705L15.785 13.6398C15.2713 13.177 14.7219 12.9646 14.2781 12.9851C15.4511 11.6097 16.1597 9.82528 16.1597 7.87502C16.1597 3.52575 12.6376 0 8.29286 0C3.94816 0 0.426041 3.52575 0.426041 7.87502C0.426041 12.2243 3.94812 15.75 8.29286 15.75C10.2411 15.75 12.0237 15.0408 13.3976 13.8665C13.3771 14.3108 13.5894 14.8607 14.0517 15.3749L18.2779 20.3491C19.0015 21.154 20.1836 21.2218 20.9046 20.5C21.6257 19.7782 21.558 18.5948 20.754 17.8705ZM8.29286 13.125C5.3964 13.125 3.04831 10.7745 3.04831 7.87502C3.04831 4.97554 5.3964 2.62501 8.29286 2.62501C11.1893 2.62501 13.5374 4.97554 13.5374 7.87502C13.5374 10.7745 11.1894 13.125 8.29286 13.125Z" fill="black"/>
</svg>
