<svg width="55" height="62" viewBox="0 0 55 62" fill="none" xmlns="http://www.w3.org/2000/svg">
<path d="M7.71497 56.8291C7.71497 56.8656 7.70585 56.8975 7.68762 56.9248C7.66939 56.9476 7.63749 56.9681 7.59192 56.9863C7.54635 57.0046 7.48482 57.0182 7.40735 57.0273C7.33443 57.0365 7.24101 57.041 7.12708 57.041C7.0177 57.041 6.92428 57.0365 6.8468 57.0273C6.76933 57.0182 6.7078 57.0046 6.66223 56.9863C6.62122 56.9681 6.58931 56.9476 6.56653 56.9248C6.5483 56.8975 6.53918 56.8656 6.53918 56.8291V49.1729H2.54016V56.8291C2.54016 56.8656 2.52877 56.8975 2.50598 56.9248C2.48775 56.9476 2.45585 56.9681 2.41028 56.9863C2.36926 57.0046 2.31002 57.0182 2.23254 57.0273C2.15963 57.0365 2.0662 57.041 1.95227 57.041C1.83834 57.041 1.74264 57.0365 1.66516 57.0273C1.59224 57.0182 1.533 57.0046 1.48743 56.9863C1.44185 56.9681 1.40995 56.9476 1.39172 56.9248C1.37349 56.8975 1.36438 56.8656 1.36438 56.8291V48.6328C1.36438 48.4733 1.40312 48.3548 1.48059 48.2773C1.56262 48.1953 1.66516 48.1543 1.78821 48.1543H7.30481C7.43241 48.1543 7.53267 48.1953 7.60559 48.2773C7.67851 48.3548 7.71497 48.4733 7.71497 48.6328V56.8291ZM15.6036 53.6572C15.6036 54.195 15.5444 54.6781 15.4259 55.1064C15.312 55.5348 15.1411 55.8994 14.9132 56.2002C14.6899 56.4964 14.4119 56.7266 14.0792 56.8906C13.7465 57.0501 13.366 57.1299 12.9376 57.1299C12.7553 57.1299 12.5867 57.1117 12.4318 57.0752C12.2768 57.0387 12.1241 56.9818 11.9738 56.9043C11.8279 56.8268 11.6821 56.7288 11.5363 56.6104C11.3904 56.4919 11.2355 56.3529 11.0714 56.1934V59.2695C11.0714 59.306 11.0623 59.3379 11.0441 59.3652C11.0258 59.3926 10.9962 59.4154 10.9552 59.4336C10.9142 59.4518 10.8572 59.4655 10.7843 59.4746C10.7114 59.4837 10.618 59.4883 10.504 59.4883C10.3947 59.4883 10.3035 59.4837 10.2306 59.4746C10.1577 59.4655 10.0984 59.4518 10.0529 59.4336C10.0118 59.4154 9.98222 59.3926 9.96399 59.3652C9.95032 59.3379 9.94348 59.306 9.94348 59.2695V50.6768C9.94348 50.6357 9.95032 50.6038 9.96399 50.5811C9.97766 50.5537 10.005 50.5309 10.046 50.5127C10.087 50.4945 10.1394 50.4831 10.2032 50.4785C10.267 50.4694 10.3445 50.4648 10.4357 50.4648C10.5314 50.4648 10.6088 50.4694 10.6681 50.4785C10.7319 50.4831 10.7843 50.4945 10.8253 50.5127C10.8663 50.5309 10.8937 50.5537 10.9073 50.5811C10.9256 50.6038 10.9347 50.6357 10.9347 50.6768V51.5039C11.1215 51.3125 11.3016 51.1462 11.4747 51.0049C11.6479 50.8636 11.8211 50.7474 11.9943 50.6562C12.172 50.5605 12.352 50.4899 12.5343 50.4443C12.7212 50.3942 12.9171 50.3691 13.1222 50.3691C13.5688 50.3691 13.9493 50.4557 14.2638 50.6289C14.5782 50.8021 14.8335 51.0391 15.0294 51.3398C15.2299 51.6406 15.3758 51.9915 15.4669 52.3926C15.5581 52.7891 15.6036 53.2106 15.6036 53.6572ZM14.4142 53.7871C14.4142 53.4727 14.3891 53.1696 14.339 52.8779C14.2934 52.5817 14.2114 52.3197 14.0929 52.0918C13.979 51.8639 13.824 51.6816 13.6281 51.5449C13.4321 51.4082 13.1883 51.3398 12.8966 51.3398C12.7508 51.3398 12.6072 51.3626 12.4659 51.4082C12.3247 51.4492 12.1811 51.5176 12.0353 51.6133C11.8894 51.7044 11.7368 51.8275 11.5773 51.9824C11.4178 52.1328 11.2491 52.3197 11.0714 52.543V54.9902C11.3813 55.3685 11.6753 55.6579 11.9532 55.8584C12.2312 56.0589 12.5229 56.1592 12.8282 56.1592C13.1108 56.1592 13.3523 56.0908 13.5529 55.9541C13.7579 55.8174 13.922 55.6351 14.045 55.4072C14.1726 55.1794 14.2661 54.9242 14.3253 54.6416C14.3846 54.359 14.4142 54.0742 14.4142 53.7871ZM23.0206 53.6846C23.0206 54.1859 22.9545 54.6484 22.8224 55.0723C22.6902 55.4915 22.492 55.8538 22.2277 56.1592C21.9679 56.4645 21.6398 56.7038 21.2433 56.877C20.8514 57.0456 20.3956 57.1299 19.8761 57.1299C19.3702 57.1299 18.9282 57.0547 18.5499 56.9043C18.1762 56.7539 17.8641 56.5352 17.6134 56.248C17.3628 55.9609 17.1759 55.6123 17.0529 55.2021C16.9298 54.792 16.8683 54.3271 16.8683 53.8076C16.8683 53.3063 16.9321 52.846 17.0597 52.4268C17.1919 52.0029 17.3878 51.6383 17.6476 51.333C17.9119 51.0277 18.24 50.7907 18.632 50.6221C19.0239 50.4535 19.4819 50.3691 20.006 50.3691C20.5118 50.3691 20.9516 50.4443 21.3253 50.5947C21.7036 50.7451 22.018 50.9639 22.2687 51.251C22.5193 51.5381 22.7062 51.8867 22.8292 52.2969C22.9568 52.707 23.0206 53.1696 23.0206 53.6846ZM21.8312 53.7598C21.8312 53.4271 21.7993 53.1126 21.7355 52.8164C21.6762 52.5202 21.576 52.2604 21.4347 52.0371C21.2934 51.8138 21.102 51.6383 20.8605 51.5107C20.6189 51.3786 20.3182 51.3125 19.9581 51.3125C19.6254 51.3125 19.3383 51.3717 19.0968 51.4902C18.8598 51.6087 18.6639 51.7773 18.5089 51.9961C18.354 52.2103 18.2378 52.4655 18.1603 52.7617C18.0874 53.0579 18.0509 53.3815 18.0509 53.7324C18.0509 54.0697 18.0805 54.3864 18.1398 54.6826C18.2036 54.9788 18.3061 55.2386 18.4474 55.4619C18.5932 55.6807 18.7869 55.8561 19.0284 55.9883C19.27 56.1159 19.5708 56.1797 19.9308 56.1797C20.2589 56.1797 20.5437 56.1204 20.7853 56.002C21.0268 55.8835 21.2251 55.7171 21.38 55.5029C21.535 55.2887 21.6489 55.0335 21.7218 54.7373C21.7947 54.4411 21.8312 54.1152 21.8312 53.7598ZM31.8185 53.6982C31.8185 54.1813 31.7478 54.6257 31.6066 55.0312C31.4653 55.4368 31.2557 55.79 30.9777 56.0908C30.7042 56.3916 30.3647 56.6331 29.9591 56.8154C29.5535 56.9977 29.0887 57.1025 28.5646 57.1299V59.2695C28.5646 59.306 28.5555 59.3379 28.5372 59.3652C28.519 59.3926 28.4894 59.4154 28.4484 59.4336C28.4073 59.4518 28.3504 59.4655 28.2775 59.4746C28.2045 59.4837 28.1134 59.4883 28.004 59.4883C27.8947 59.4883 27.8035 59.4837 27.7306 59.4746C27.6577 59.4655 27.5984 59.4518 27.5529 59.4336C27.5118 59.4154 27.4822 59.3926 27.464 59.3652C27.4458 59.3379 27.4366 59.306 27.4366 59.2695V57.1299C26.9034 57.1071 26.434 57.016 26.0284 56.8564C25.6228 56.6924 25.2833 56.4691 25.0099 56.1865C24.7365 55.8994 24.5314 55.5553 24.3947 55.1543C24.2579 54.7533 24.1896 54.3021 24.1896 53.8008C24.1896 53.3177 24.2602 52.8734 24.4015 52.4678C24.5428 52.0622 24.7501 51.709 25.0236 51.4082C25.3016 51.1074 25.6434 50.8682 26.049 50.6904C26.4545 50.5081 26.9171 50.401 27.4366 50.3691V47.7715C27.4366 47.7396 27.4458 47.71 27.464 47.6826C27.4822 47.6553 27.5118 47.6325 27.5529 47.6143C27.5984 47.596 27.6577 47.5824 27.7306 47.5732C27.8035 47.5641 27.8947 47.5596 28.004 47.5596C28.1134 47.5596 28.2045 47.5641 28.2775 47.5732C28.3504 47.5824 28.4073 47.596 28.4484 47.6143C28.4894 47.6325 28.519 47.6553 28.5372 47.6826C28.5555 47.71 28.5646 47.7396 28.5646 47.7715V50.3691C29.1069 50.3965 29.5809 50.4922 29.9865 50.6562C30.392 50.8203 30.7293 51.0459 30.9982 51.333C31.2716 51.6156 31.4767 51.9574 31.6134 52.3584C31.7501 52.7594 31.8185 53.2061 31.8185 53.6982ZM30.6495 53.7734C30.6495 53.0306 30.4855 52.4518 30.1573 52.0371C29.8338 51.6224 29.3029 51.3831 28.5646 51.3193V56.1865C29.2436 56.1455 29.7609 55.9222 30.1163 55.5166C30.4718 55.111 30.6495 54.5299 30.6495 53.7734ZM27.4366 51.3193C26.7622 51.3558 26.2472 51.5768 25.8917 51.9824C25.5363 52.3835 25.3585 52.9668 25.3585 53.7324C25.3585 54.0924 25.395 54.4183 25.4679 54.71C25.5454 54.9971 25.6661 55.2454 25.8302 55.4551C25.9988 55.6602 26.2153 55.8265 26.4796 55.9541C26.7439 56.0771 27.0629 56.1546 27.4366 56.1865V51.3193ZM38.8937 56.8359C38.8937 56.8678 38.8846 56.8975 38.8663 56.9248C38.8481 56.9521 38.8185 56.9749 38.7775 56.9932C38.7365 57.0068 38.6795 57.0182 38.6066 57.0273C38.5337 57.0365 38.4425 57.041 38.3331 57.041C38.2238 57.041 38.1326 57.0365 38.0597 57.0273C37.9868 57.0182 37.9275 57.0068 37.882 56.9932C37.8364 56.9749 37.8045 56.9521 37.7863 56.9248C37.768 56.8975 37.7589 56.8678 37.7589 56.8359V53.2949C37.7589 53.1172 37.7635 52.9372 37.7726 52.7549C37.7817 52.568 37.7931 52.3857 37.8068 52.208C37.7019 52.3903 37.5857 52.5703 37.4581 52.748C37.3351 52.9212 37.2098 53.0944 37.0822 53.2676L34.4708 56.8359C34.4389 56.8724 34.4093 56.9043 34.382 56.9316C34.3592 56.959 34.3273 56.9818 34.2863 57C34.2498 57.0137 34.2019 57.0228 34.1427 57.0273C34.0835 57.0365 34.0105 57.041 33.924 57.041C33.8237 57.041 33.7417 57.0365 33.6779 57.0273C33.6141 57.0182 33.5616 57.0068 33.5206 56.9932C33.4842 56.9749 33.4568 56.9521 33.4386 56.9248C33.4249 56.8975 33.4181 56.8678 33.4181 56.8359V50.6699C33.4181 50.638 33.4249 50.6084 33.4386 50.5811C33.4568 50.5537 33.4865 50.5309 33.5275 50.5127C33.573 50.4945 33.6323 50.4831 33.7052 50.4785C33.7781 50.4694 33.867 50.4648 33.9718 50.4648C34.1906 50.4648 34.3409 50.4831 34.423 50.5195C34.505 50.5514 34.546 50.6016 34.546 50.6699V54.2314C34.546 54.4092 34.5415 54.5869 34.5323 54.7646C34.5232 54.9378 34.5118 55.111 34.4982 55.2842C34.603 55.111 34.7078 54.9424 34.8126 54.7783C34.922 54.6097 35.0382 54.4456 35.1613 54.2861L37.8068 50.6699C37.8341 50.6335 37.8615 50.6016 37.8888 50.5742C37.9207 50.5469 37.9572 50.5264 37.9982 50.5127C38.0437 50.4945 38.0962 50.4831 38.1554 50.4785C38.2146 50.4694 38.2921 50.4648 38.3878 50.4648C38.4835 50.4648 38.5633 50.4694 38.6271 50.4785C38.6954 50.4831 38.7478 50.4945 38.7843 50.5127C38.8253 50.5309 38.8527 50.5537 38.8663 50.5811C38.8846 50.6084 38.8937 50.6403 38.8937 50.6768V56.8359ZM46.0441 56.8291C46.0441 56.8656 46.035 56.8975 46.0167 56.9248C45.9985 56.9476 45.9689 56.9681 45.9279 56.9863C45.8868 57.0046 45.8299 57.0182 45.757 57.0273C45.684 57.0365 45.5929 57.041 45.4835 57.041C45.3696 57.041 45.2762 57.0365 45.2032 57.0273C45.1303 57.0182 45.0711 57.0046 45.0255 56.9863C44.9845 56.9681 44.9549 56.9476 44.9366 56.9248C44.9184 56.8975 44.9093 56.8656 44.9093 56.8291V51.4561H43.214C43.1411 52.1807 43.0522 52.8255 42.9474 53.3906C42.8471 53.9557 42.7332 54.4479 42.6056 54.8672C42.478 55.2865 42.3344 55.6396 42.1749 55.9268C42.0154 56.2139 41.84 56.4463 41.6486 56.624C41.4617 56.7972 41.2566 56.9225 41.0333 57C40.8146 57.0775 40.5799 57.1162 40.3292 57.1162C40.2882 57.1162 40.2517 57.1094 40.2198 57.0957C40.1925 57.082 40.1697 57.057 40.1515 57.0205C40.1333 56.984 40.1196 56.9339 40.1105 56.8701C40.1014 56.8018 40.0968 56.7152 40.0968 56.6104C40.0968 56.501 40.0991 56.4121 40.1036 56.3438C40.1128 56.2754 40.1241 56.2207 40.1378 56.1797C40.156 56.1387 40.1766 56.1113 40.1993 56.0977C40.2267 56.084 40.2586 56.0771 40.295 56.0771C40.4454 56.0771 40.589 56.043 40.7257 55.9746C40.8624 55.9017 40.99 55.7855 41.1085 55.626C41.227 55.4619 41.3387 55.25 41.4435 54.9902C41.5483 54.7259 41.644 54.4023 41.7306 54.0195C41.8172 53.6367 41.8992 53.1901 41.9767 52.6797C42.0542 52.1647 42.1271 51.5745 42.1954 50.9092C42.2045 50.7725 42.2365 50.6722 42.2911 50.6084C42.3504 50.54 42.4324 50.5059 42.5372 50.5059H45.6954C45.8048 50.5059 45.8891 50.54 45.9484 50.6084C46.0122 50.6722 46.0441 50.7725 46.0441 50.9092V56.8291ZM53.2491 54.874C53.2491 55.1885 53.1899 55.4824 53.0714 55.7559C52.9575 56.0293 52.7775 56.2663 52.5314 56.4668C52.2853 56.6673 51.9708 56.8268 51.588 56.9453C51.2052 57.0592 50.7472 57.1162 50.214 57.1162C50.0909 57.1162 49.9633 57.1139 49.8312 57.1094C49.699 57.1094 49.5691 57.1048 49.4415 57.0957C49.3139 57.0911 49.1886 57.0843 49.0656 57.0752C48.9425 57.0661 48.8217 57.0547 48.7032 57.041C48.5118 57.0182 48.3706 56.9567 48.2794 56.8564C48.1883 56.7562 48.1427 56.6035 48.1427 56.3984V50.6768C48.1427 50.6403 48.1495 50.6107 48.1632 50.5879C48.1814 50.5605 48.2111 50.5378 48.2521 50.5195C48.2976 50.4967 48.3569 50.4831 48.4298 50.4785C48.5027 50.4694 48.5939 50.4648 48.7032 50.4648C48.8126 50.4648 48.9038 50.4694 48.9767 50.4785C49.0496 50.4831 49.1066 50.4967 49.1476 50.5195C49.1932 50.5378 49.2251 50.5605 49.2433 50.5879C49.2615 50.6107 49.2706 50.6403 49.2706 50.6768V52.8438C49.4392 52.8301 49.6215 52.821 49.8175 52.8164C50.0135 52.8073 50.214 52.8027 50.4191 52.8027C50.9158 52.8027 51.3419 52.8529 51.6974 52.9531C52.0574 53.0488 52.3514 53.1878 52.5792 53.3701C52.8071 53.5524 52.9757 53.7712 53.0851 54.0264C53.1945 54.277 53.2491 54.5596 53.2491 54.874ZM52.0597 54.9492C52.0597 54.7624 52.0301 54.5938 51.9708 54.4434C51.9116 54.2884 51.8136 54.1585 51.6769 54.0537C51.5402 53.9443 51.3624 53.8623 51.1437 53.8076C50.9249 53.7484 50.656 53.7188 50.337 53.7188C50.1456 53.7188 49.9565 53.7233 49.7697 53.7324C49.5874 53.7415 49.421 53.7529 49.2706 53.7666V56.1318C49.4301 56.1501 49.601 56.166 49.7833 56.1797C49.9656 56.1934 50.1684 56.2002 50.3917 56.2002C50.9568 56.2002 51.3761 56.0908 51.6495 55.8721C51.923 55.6488 52.0597 55.3411 52.0597 54.9492Z" fill="#818181"/>
<path d="M26.6609 20.625C28.1427 20.625 29.5912 20.1852 30.8233 19.361C32.0554 18.5369 33.0157 17.3656 33.5828 15.9951C34.1498 14.6247 34.2982 13.1167 34.0091 11.6618C33.72 10.207 33.0065 8.8706 31.9587 7.8217C30.9109 6.77281 29.5759 6.0585 28.1225 5.76911C26.6692 5.47972 25.1628 5.62825 23.7938 6.19591C22.4247 6.76357 21.2546 7.72486 20.4314 8.95823C19.6081 10.1916 19.1687 11.6417 19.1687 13.125C19.1687 15.1141 19.9581 17.0218 21.3631 18.4283C22.7682 19.8348 24.6738 20.625 26.6609 20.625Z" fill="white"/>
<path d="M37.8992 39.375C38.3959 39.375 38.8724 39.1775 39.2236 38.8258C39.5749 38.4742 39.7722 37.9973 39.7722 37.5C39.7722 34.019 38.3908 30.6806 35.932 28.2192C33.4731 25.7578 30.1382 24.375 26.6609 24.375C23.1835 24.375 19.8486 25.7578 17.3898 28.2192C14.9309 30.6806 13.5496 34.019 13.5496 37.5C13.5496 37.9973 13.7469 38.4742 14.0982 38.8258C14.4494 39.1775 14.9258 39.375 15.4226 39.375H37.8992Z" fill="white"/>
</svg>
