<svg width="45" height="62" viewBox="0 0 45 62" fill="none" xmlns="http://www.w3.org/2000/svg">
<path d="M11.0068 54.4639C11.0068 54.7419 10.9704 54.9993 10.8975 55.2363C10.8291 55.4688 10.7311 55.6784 10.6035 55.8652C10.4759 56.0521 10.321 56.2161 10.1387 56.3574C9.96094 56.4987 9.75814 56.6172 9.53027 56.7129C9.30697 56.8086 9.06543 56.8815 8.80566 56.9316C8.55046 56.9772 8.25651 57 7.92383 57H5.61328C5.50846 57 5.4082 56.9658 5.3125 56.8975C5.22135 56.8245 5.17578 56.6992 5.17578 56.5215V48.6328C5.17578 48.4551 5.22135 48.332 5.3125 48.2637C5.4082 48.1908 5.50846 48.1543 5.61328 48.1543H7.62305C8.15169 48.1543 8.58464 48.2044 8.92188 48.3047C9.25911 48.4049 9.53939 48.5508 9.7627 48.7422C9.99056 48.9336 10.1615 49.1683 10.2754 49.4463C10.3893 49.7243 10.4463 50.0387 10.4463 50.3896C10.4463 50.5993 10.4212 50.7998 10.3711 50.9912C10.321 51.1826 10.2458 51.3604 10.1455 51.5244C10.0498 51.6839 9.92676 51.8275 9.77637 51.9551C9.63053 52.0827 9.46191 52.1875 9.27051 52.2695C9.51204 52.3151 9.73763 52.3994 9.94727 52.5225C10.1569 52.641 10.3392 52.7936 10.4941 52.9805C10.6536 53.1673 10.779 53.3861 10.8701 53.6367C10.9613 53.8874 11.0068 54.1631 11.0068 54.4639ZM9.23633 50.5059C9.23633 50.2917 9.20671 50.098 9.14746 49.9248C9.08822 49.7516 8.99479 49.6058 8.86719 49.4873C8.73958 49.3643 8.57324 49.2708 8.36816 49.207C8.16309 49.1432 7.89193 49.1113 7.55469 49.1113H6.33789V51.9756H7.67773C7.98307 51.9756 8.22917 51.9368 8.41602 51.8594C8.60286 51.7773 8.75781 51.6702 8.88086 51.5381C9.00391 51.4014 9.09277 51.2441 9.14746 51.0664C9.20671 50.8841 9.23633 50.6973 9.23633 50.5059ZM9.76953 54.5322C9.76953 54.2679 9.72624 54.0355 9.63965 53.835C9.55762 53.6344 9.43457 53.4658 9.27051 53.3291C9.111 53.1924 8.9082 53.0898 8.66211 53.0215C8.42057 52.9486 8.11523 52.9121 7.74609 52.9121H6.33789V56.0293H8.04688C8.31576 56.0293 8.55046 55.9974 8.75098 55.9336C8.9515 55.8698 9.12695 55.7764 9.27734 55.6533C9.43229 55.5257 9.55306 55.3685 9.63965 55.1816C9.72624 54.9948 9.76953 54.7783 9.76953 54.5322ZM18.3828 53.6846C18.3828 54.1859 18.3167 54.6484 18.1846 55.0723C18.0524 55.4915 17.8542 55.8538 17.5898 56.1592C17.3301 56.4645 17.002 56.7038 16.6055 56.877C16.2135 57.0456 15.7578 57.1299 15.2383 57.1299C14.7324 57.1299 14.2904 57.0547 13.9121 56.9043C13.5384 56.7539 13.2262 56.5352 12.9756 56.248C12.7249 55.9609 12.5381 55.6123 12.415 55.2021C12.292 54.792 12.2305 54.3271 12.2305 53.8076C12.2305 53.3063 12.2943 52.846 12.4219 52.4268C12.554 52.0029 12.75 51.6383 13.0098 51.333C13.2741 51.0277 13.6022 50.7907 13.9941 50.6221C14.3861 50.4535 14.8441 50.3691 15.3682 50.3691C15.874 50.3691 16.3138 50.4443 16.6875 50.5947C17.0658 50.7451 17.3802 50.9639 17.6309 51.251C17.8815 51.5381 18.0684 51.8867 18.1914 52.2969C18.319 52.707 18.3828 53.1696 18.3828 53.6846ZM17.1934 53.7598C17.1934 53.4271 17.1615 53.1126 17.0977 52.8164C17.0384 52.5202 16.9382 52.2604 16.7969 52.0371C16.6556 51.8138 16.4642 51.6383 16.2227 51.5107C15.9811 51.3786 15.6803 51.3125 15.3203 51.3125C14.9876 51.3125 14.7005 51.3717 14.459 51.4902C14.222 51.6087 14.026 51.7773 13.8711 51.9961C13.7161 52.2103 13.5999 52.4655 13.5225 52.7617C13.4495 53.0579 13.4131 53.3815 13.4131 53.7324C13.4131 54.0697 13.4427 54.3864 13.502 54.6826C13.5658 54.9788 13.6683 55.2386 13.8096 55.4619C13.9554 55.6807 14.1491 55.8561 14.3906 55.9883C14.6322 56.1159 14.9329 56.1797 15.293 56.1797C15.6211 56.1797 15.9059 56.1204 16.1475 56.002C16.389 55.8835 16.5872 55.7171 16.7422 55.5029C16.8971 55.2887 17.0111 55.0335 17.084 54.7373C17.1569 54.4411 17.1934 54.1152 17.1934 53.7598ZM25.5195 56.8359C25.5195 56.8678 25.5104 56.8975 25.4922 56.9248C25.474 56.9521 25.4443 56.9749 25.4033 56.9932C25.3623 57.0068 25.3053 57.0182 25.2324 57.0273C25.1595 57.0365 25.0684 57.041 24.959 57.041C24.8496 57.041 24.7585 57.0365 24.6855 57.0273C24.6126 57.0182 24.5534 57.0068 24.5078 56.9932C24.4622 56.9749 24.4303 56.9521 24.4121 56.9248C24.3939 56.8975 24.3848 56.8678 24.3848 56.8359V53.2949C24.3848 53.1172 24.3893 52.9372 24.3984 52.7549C24.4076 52.568 24.4189 52.3857 24.4326 52.208C24.3278 52.3903 24.2116 52.5703 24.084 52.748C23.9609 52.9212 23.8356 53.0944 23.708 53.2676L21.0967 56.8359C21.0648 56.8724 21.0352 56.9043 21.0078 56.9316C20.985 56.959 20.9531 56.9818 20.9121 57C20.8757 57.0137 20.8278 57.0228 20.7686 57.0273C20.7093 57.0365 20.6364 57.041 20.5498 57.041C20.4495 57.041 20.3675 57.0365 20.3037 57.0273C20.2399 57.0182 20.1875 57.0068 20.1465 56.9932C20.11 56.9749 20.0827 56.9521 20.0645 56.9248C20.0508 56.8975 20.0439 56.8678 20.0439 56.8359V50.6699C20.0439 50.638 20.0508 50.6084 20.0645 50.5811C20.0827 50.5537 20.1123 50.5309 20.1533 50.5127C20.1989 50.4945 20.2581 50.4831 20.3311 50.4785C20.404 50.4694 20.4928 50.4648 20.5977 50.4648C20.8164 50.4648 20.9668 50.4831 21.0488 50.5195C21.1309 50.5514 21.1719 50.6016 21.1719 50.6699V54.2314C21.1719 54.4092 21.1673 54.5869 21.1582 54.7646C21.1491 54.9378 21.1377 55.111 21.124 55.2842C21.2288 55.111 21.3337 54.9424 21.4385 54.7783C21.5479 54.6097 21.6641 54.4456 21.7871 54.2861L24.4326 50.6699C24.46 50.6335 24.4873 50.6016 24.5146 50.5742C24.5465 50.5469 24.583 50.5264 24.624 50.5127C24.6696 50.4945 24.722 50.4831 24.7812 50.4785C24.8405 50.4694 24.918 50.4648 25.0137 50.4648C25.1094 50.4648 25.1891 50.4694 25.2529 50.4785C25.3213 50.4831 25.3737 50.4945 25.4102 50.5127C25.4512 50.5309 25.4785 50.5537 25.4922 50.5811C25.5104 50.6084 25.5195 50.6403 25.5195 50.6768V56.8359ZM24.918 47.7715C24.918 48.0312 24.8792 48.2751 24.8018 48.5029C24.7243 48.7308 24.6012 48.9313 24.4326 49.1045C24.264 49.2731 24.0475 49.4076 23.7832 49.5078C23.5189 49.6035 23.1976 49.6514 22.8193 49.6514C22.473 49.6514 22.1676 49.6081 21.9033 49.5215C21.6436 49.4349 21.4248 49.3118 21.2471 49.1523C21.0739 48.9883 20.9417 48.79 20.8506 48.5576C20.764 48.3252 20.7207 48.0632 20.7207 47.7715C20.7207 47.7259 20.7275 47.6872 20.7412 47.6553C20.7594 47.6234 20.7891 47.5983 20.8301 47.5801C20.8757 47.5618 20.9326 47.5482 21.001 47.5391C21.0739 47.5299 21.1605 47.5254 21.2607 47.5254C21.3701 47.5254 21.4567 47.5322 21.5205 47.5459C21.5843 47.555 21.6322 47.571 21.6641 47.5938C21.7005 47.6165 21.7233 47.6462 21.7324 47.6826C21.7461 47.7191 21.7529 47.7624 21.7529 47.8125C21.7529 47.9583 21.7757 48.0928 21.8213 48.2158C21.8669 48.3389 21.9352 48.446 22.0264 48.5371C22.1221 48.6283 22.236 48.6989 22.3682 48.749C22.5003 48.7992 22.653 48.8242 22.8262 48.8242C22.9948 48.8242 23.1429 48.7992 23.2705 48.749C23.4027 48.6989 23.5143 48.6283 23.6055 48.5371C23.6966 48.446 23.765 48.3366 23.8105 48.209C23.8561 48.0814 23.8789 47.9447 23.8789 47.7988C23.8789 47.7533 23.8835 47.7145 23.8926 47.6826C23.9062 47.6462 23.929 47.6165 23.9609 47.5938C23.9974 47.571 24.0452 47.555 24.1045 47.5459C24.1683 47.5322 24.2526 47.5254 24.3574 47.5254C24.4668 47.5254 24.5557 47.5299 24.624 47.5391C24.6969 47.5482 24.7539 47.5618 24.7949 47.5801C24.8405 47.5983 24.8724 47.6234 24.8906 47.6553C24.9089 47.6872 24.918 47.7259 24.918 47.7715ZM31.9248 51.0117C31.9248 51.1029 31.9202 51.1803 31.9111 51.2441C31.902 51.3079 31.8861 51.3604 31.8633 51.4014C31.8451 51.4424 31.8223 51.4743 31.7949 51.4971C31.7676 51.5153 31.7334 51.5244 31.6924 51.5244H29.8467V56.8291C29.8467 56.8656 29.8376 56.8975 29.8193 56.9248C29.8011 56.9476 29.7715 56.9681 29.7305 56.9863C29.6895 57.0046 29.6325 57.0182 29.5596 57.0273C29.4867 57.0365 29.3932 57.041 29.2793 57.041C29.1699 57.041 29.0788 57.0365 29.0059 57.0273C28.9329 57.0182 28.8737 57.0046 28.8281 56.9863C28.7871 56.9681 28.7575 56.9476 28.7393 56.9248C28.7256 56.8975 28.7188 56.8656 28.7188 56.8291V51.5244H26.873C26.8366 51.5244 26.8024 51.5153 26.7705 51.4971C26.7432 51.4743 26.7204 51.4424 26.7021 51.4014C26.6839 51.3604 26.668 51.3079 26.6543 51.2441C26.6452 51.1758 26.6406 51.096 26.6406 51.0049C26.6406 50.9229 26.6452 50.8499 26.6543 50.7861C26.668 50.7223 26.6839 50.6699 26.7021 50.6289C26.7249 50.5833 26.75 50.5514 26.7773 50.5332C26.8047 50.5104 26.8366 50.499 26.873 50.499H31.6924C31.7288 50.499 31.7607 50.5104 31.7881 50.5332C31.82 50.5514 31.8451 50.5833 31.8633 50.6289C31.8815 50.6699 31.8952 50.7246 31.9043 50.793C31.918 50.8568 31.9248 50.9297 31.9248 51.0117ZM38.5215 56.8359C38.5215 56.8678 38.5124 56.8975 38.4941 56.9248C38.4759 56.9521 38.4463 56.9749 38.4053 56.9932C38.3643 57.0068 38.3073 57.0182 38.2344 57.0273C38.1615 57.0365 38.0703 57.041 37.9609 57.041C37.8516 57.041 37.7604 57.0365 37.6875 57.0273C37.6146 57.0182 37.5553 57.0068 37.5098 56.9932C37.4642 56.9749 37.4323 56.9521 37.4141 56.9248C37.3958 56.8975 37.3867 56.8678 37.3867 56.8359V53.2949C37.3867 53.1172 37.3913 52.9372 37.4004 52.7549C37.4095 52.568 37.4209 52.3857 37.4346 52.208C37.3298 52.3903 37.2135 52.5703 37.0859 52.748C36.9629 52.9212 36.8376 53.0944 36.71 53.2676L34.0986 56.8359C34.0667 56.8724 34.0371 56.9043 34.0098 56.9316C33.987 56.959 33.9551 56.9818 33.9141 57C33.8776 57.0137 33.8298 57.0228 33.7705 57.0273C33.7113 57.0365 33.6383 57.041 33.5518 57.041C33.4515 57.041 33.3695 57.0365 33.3057 57.0273C33.2419 57.0182 33.1895 57.0068 33.1484 56.9932C33.112 56.9749 33.0846 56.9521 33.0664 56.9248C33.0527 56.8975 33.0459 56.8678 33.0459 56.8359V50.6699C33.0459 50.638 33.0527 50.6084 33.0664 50.5811C33.0846 50.5537 33.1143 50.5309 33.1553 50.5127C33.2008 50.4945 33.2601 50.4831 33.333 50.4785C33.4059 50.4694 33.4948 50.4648 33.5996 50.4648C33.8184 50.4648 33.9688 50.4831 34.0508 50.5195C34.1328 50.5514 34.1738 50.6016 34.1738 50.6699V54.2314C34.1738 54.4092 34.1693 54.5869 34.1602 54.7646C34.151 54.9378 34.1396 55.111 34.126 55.2842C34.2308 55.111 34.3356 54.9424 34.4404 54.7783C34.5498 54.6097 34.666 54.4456 34.7891 54.2861L37.4346 50.6699C37.4619 50.6335 37.4893 50.6016 37.5166 50.5742C37.5485 50.5469 37.585 50.5264 37.626 50.5127C37.6715 50.4945 37.724 50.4831 37.7832 50.4785C37.8424 50.4694 37.9199 50.4648 38.0156 50.4648C38.1113 50.4648 38.1911 50.4694 38.2549 50.4785C38.3232 50.4831 38.3757 50.4945 38.4121 50.5127C38.4531 50.5309 38.4805 50.5537 38.4941 50.5811C38.5124 50.6084 38.5215 50.6403 38.5215 50.6768V56.8359Z" fill="#818181"/>
<path d="M22.5 20.625C23.9834 20.625 25.4334 20.1852 26.6668 19.361C27.9001 18.5369 28.8614 17.3656 29.4291 15.9951C29.9968 14.6247 30.1453 13.1167 29.8559 11.6618C29.5665 10.207 28.8522 8.8706 27.8033 7.8217C26.7544 6.77281 25.418 6.0585 23.9632 5.76911C22.5083 5.47972 21.0003 5.62825 19.6299 6.19591C18.2594 6.76357 17.0881 7.72486 16.264 8.95823C15.4399 10.1916 15 11.6417 15 13.125C15 15.1141 15.7902 17.0218 17.1967 18.4283C18.6032 19.8348 20.5109 20.625 22.5 20.625Z" fill="white"/>
<path d="M33.75 39.375C34.2473 39.375 34.7242 39.1775 35.0758 38.8258C35.4275 38.4742 35.625 37.9973 35.625 37.5C35.625 34.019 34.2422 30.6806 31.7808 28.2192C29.3194 25.7578 25.981 24.375 22.5 24.375C19.019 24.375 15.6806 25.7578 13.2192 28.2192C10.7578 30.6806 9.375 34.019 9.375 37.5C9.375 37.9973 9.57254 38.4742 9.92418 38.8258C10.2758 39.1775 10.7527 39.375 11.25 39.375H33.75Z" fill="white"/>
</svg>
